<svg width="212" height="193" viewBox="0 0 212 193" fill="none" xmlns="http://www.w3.org/2000/svg">
<path d="M43.4233 15.5609C33.0042 20.8684 22.6715 27.0752 15.176 36.3856C8.66971 44.4674 4.63837 54.5211 2.3112 64.8439C-7.9658 110.431 17.06 160.97 56.9467 181.432C96.8335 201.893 147.547 192.931 181.491 162.784C190.24 155.013 198.058 145.88 203.385 135.193C219.287 103.297 209.498 61.5676 185.612 35.83C146.307 -6.51957 91.0431 -8.69709 43.4233 15.5609Z" fill="#F7B1CB"/>
<path d="M64.3776 101.907C69.4157 101.907 73.4999 97.8227 73.4999 92.7846C73.4999 87.7465 69.4157 83.6624 64.3776 83.6624C59.3395 83.6624 55.2554 87.7465 55.2554 92.7846C55.2554 97.8227 59.3395 101.907 64.3776 101.907Z" fill="#4F5463"/>
<path d="M147.781 101.907C152.82 101.907 156.904 97.8227 156.904 92.7846C156.904 87.7465 152.82 83.6624 147.781 83.6624C142.743 83.6624 138.659 87.7465 138.659 92.7846C138.659 97.8227 142.743 101.907 147.781 101.907Z" fill="#4F5463"/>
<path d="M99.0762 102.98C99.691 104.596 101.228 105.59 102.861 105.59C103.339 105.59 103.826 105.505 104.3 105.324C106.389 104.529 107.439 102.191 106.644 100.101L104.295 93.9227C103.501 91.8331 101.166 90.7828 99.0722 91.5768C96.982 92.3709 95.9316 94.7095 96.7263 96.7998L99.0762 102.98Z" fill="#4F5463"/>
<path d="M134.665 110.163C132.708 109.084 130.244 109.799 129.166 111.757C124.897 119.509 116.427 124.788 107.587 125.205C98.7413 125.605 89.817 121.163 84.8385 113.847C83.5805 111.998 81.0619 111.52 79.2135 112.778C77.3651 114.036 76.8867 116.554 78.1447 118.403C84.3904 127.581 95.378 133.328 106.469 133.328C106.969 133.328 107.469 133.317 107.968 133.293C119.558 132.747 130.662 125.826 136.259 115.662C137.338 113.704 136.624 111.242 134.665 110.163Z" fill="#4F5463"/>
<path d="M25.0364 121.678C24.8018 121.678 24.5639 121.647 24.3267 121.582C22.8882 121.191 22.0394 119.708 22.4308 118.27C23.2796 115.149 24.9784 112.332 27.3421 110.123C28.4301 109.105 30.1388 109.163 31.1569 110.253C32.1743 111.343 32.1163 113.051 31.0271 114.068C29.4198 115.57 28.2166 117.565 27.6393 119.686C27.3125 120.888 26.2245 121.678 25.0364 121.678Z" fill="#E0757D"/>
<path d="M35.3487 121.657C34.78 121.657 34.206 121.477 33.7184 121.107C32.5309 120.206 32.2996 118.512 33.2011 117.325L37.3697 111.837C38.2725 110.651 39.9654 110.421 41.1522 111.32C42.339 112.222 42.5703 113.916 41.6688 115.103L37.5002 120.59C36.9691 121.289 36.1638 121.657 35.3487 121.657Z" fill="#E0757D"/>
<path d="M49.2279 123.081C48.9274 123.081 48.6217 123.031 48.3225 122.925C46.9182 122.424 46.1848 120.88 46.685 119.476C47.6642 116.727 49.2951 114.204 51.4005 112.181C52.4773 111.148 54.1853 111.184 55.2173 112.258C56.2499 113.333 56.2156 115.042 55.1408 116.075C53.6358 117.52 52.47 119.323 51.7709 121.287C51.3768 122.392 50.337 123.081 49.2279 123.081Z" fill="#E0757D"/>
<path d="M157.802 121.678C157.568 121.678 157.33 121.647 157.093 121.582C155.654 121.191 154.805 119.708 155.197 118.27C156.045 115.149 157.744 112.332 160.108 110.123C161.196 109.105 162.905 109.163 163.923 110.253C164.94 111.343 164.882 113.051 163.793 114.068C162.186 115.57 160.982 117.565 160.405 119.686C160.078 120.888 158.99 121.678 157.802 121.678Z" fill="#E0757D"/>
<path d="M168.115 121.657C167.546 121.657 166.972 121.477 166.484 121.107C165.297 120.206 165.065 118.512 165.967 117.325L170.136 111.837C171.038 110.651 172.731 110.421 173.918 111.32C175.105 112.222 175.336 113.916 174.435 115.103L170.266 120.59C169.735 121.289 168.93 121.657 168.115 121.657Z" fill="#E0757D"/>
<path d="M181.994 123.081C181.693 123.081 181.388 123.031 181.088 122.925C179.684 122.424 178.951 120.88 179.451 119.476C180.43 116.727 182.061 114.204 184.166 112.181C185.243 111.148 186.951 111.184 187.983 112.258C189.016 113.333 188.981 115.042 187.907 116.075C186.402 117.52 185.236 119.323 184.537 121.287C184.143 122.392 183.103 123.081 181.994 123.081Z" fill="#E0757D"/>
</svg>
