<svg width="97" height="89" viewBox="0 0 97 89" fill="none" xmlns="http://www.w3.org/2000/svg">
<g filter="url(#filter0_d_2_19968)">
<path d="M24.7163 8.90168C20.7648 10.9147 16.8459 13.2686 14.0032 16.7998C11.5355 19.8649 10.0066 23.6779 9.12399 27.593C5.22629 44.8823 14.7177 64.0503 29.8453 71.8106C44.9729 79.5709 64.2067 76.1718 77.0805 64.738C80.3988 61.7908 83.3637 58.3269 85.3842 54.2739C91.4151 42.1767 87.7026 26.3504 78.6432 16.589C63.7365 0.527359 42.7768 -0.298497 24.7163 8.90168Z" fill="#F7B1CB"/>
<path d="M32.6636 41.6496C34.5743 41.6496 36.1233 40.1006 36.1233 38.1899C36.1233 36.2791 34.5743 34.7301 32.6636 34.7301C30.7528 34.7301 29.2038 36.2791 29.2038 38.1899C29.2038 40.1006 30.7528 41.6496 32.6636 41.6496Z" fill="#4F5463"/>
<path d="M64.2957 41.6496C66.2064 41.6496 67.7554 40.1006 67.7554 38.1899C67.7554 36.2791 66.2064 34.7301 64.2957 34.7301C62.3849 34.7301 60.8359 36.2791 60.8359 38.1899C60.8359 40.1006 62.3849 41.6496 64.2957 41.6496Z" fill="#4F5463"/>
<path d="M45.8235 42.0567C46.0567 42.6695 46.6397 43.0467 47.2588 43.0467C47.4402 43.0467 47.6249 43.0142 47.8046 42.9457C48.5971 42.6443 48.9953 41.7573 48.6936 40.9646L47.8029 38.6215C47.5017 37.829 46.6162 37.4307 45.822 37.7318C45.0292 38.033 44.6309 38.9199 44.9323 39.7127L45.8235 42.0567Z" fill="#4F5463"/>
<path d="M59.3211 44.7809C58.5788 44.3715 57.6443 44.6427 57.2354 45.3855C55.6164 48.3256 52.4039 50.3277 49.0515 50.4856C45.6965 50.6376 42.3118 48.9529 40.4236 46.178C39.9465 45.4769 38.9913 45.2955 38.2903 45.7726C37.5892 46.2497 37.4078 47.2047 37.8849 47.9059C40.2537 51.3869 44.4209 53.5667 48.6273 53.5667C48.8168 53.5667 49.0065 53.5622 49.1959 53.5532C53.5916 53.346 57.803 50.7213 59.9256 46.8665C60.3347 46.1237 60.0641 45.19 59.3211 44.7809Z" fill="#4F5463"/>
<path d="M17.7428 49.148C17.6539 49.148 17.5637 49.1363 17.4737 49.1118C16.9281 48.9633 16.6062 48.4008 16.7547 47.8554C17.0766 46.6718 17.7209 45.6034 18.6173 44.7659C19.03 44.3795 19.678 44.4017 20.0641 44.8151C20.45 45.2282 20.428 45.876 20.0149 46.2619C19.4053 46.8315 18.949 47.5883 18.73 48.3928C18.6061 48.8484 18.1935 49.148 17.7428 49.148Z" fill="#E0757D"/>
<path d="M21.6539 49.14C21.4382 49.14 21.2205 49.0721 21.0356 48.9316C20.5852 48.5897 20.4975 47.9474 20.8394 47.4973L22.4204 45.4157C22.7628 44.9658 23.4049 44.8786 23.855 45.2197C24.3051 45.5619 24.3928 46.2042 24.0509 46.6543L22.4699 48.7354C22.2685 49.0006 21.9631 49.14 21.6539 49.14Z" fill="#E0757D"/>
<path d="M26.9178 49.6804C26.8039 49.6804 26.6879 49.6611 26.5744 49.6209C26.0418 49.4312 25.7637 48.8456 25.9534 48.313C26.3247 47.2704 26.9433 46.3137 27.7418 45.5464C28.1502 45.1545 28.798 45.168 29.1894 45.5754C29.581 45.9833 29.568 46.6313 29.1604 47.0229C28.5896 47.5713 28.1474 48.2548 27.8823 48.9998C27.7328 49.419 27.3384 49.6804 26.9178 49.6804Z" fill="#E0757D"/>
<path d="M68.0962 49.148C68.0072 49.148 67.917 49.1363 67.827 49.1118C67.2814 48.9633 66.9595 48.4008 67.108 47.8554C67.4299 46.6718 68.0742 45.6034 68.9707 44.7659C69.3833 44.3795 70.0313 44.4017 70.4175 44.8151C70.8033 45.2282 70.7814 45.876 70.3682 46.2619C69.7587 46.8315 69.3023 47.5883 69.0834 48.3928C68.9594 48.8484 68.5468 49.148 68.0962 49.148Z" fill="#E0757D"/>
<path d="M72.0072 49.14C71.7916 49.14 71.5739 49.0721 71.3889 48.9316C70.9386 48.5897 70.8509 47.9474 71.1927 47.4973L72.7738 45.4157C73.1162 44.9658 73.7582 44.8786 74.2083 45.2197C74.6584 45.5619 74.7462 46.2042 74.4043 46.6543L72.8232 48.7354C72.6218 49.0006 72.3164 49.14 72.0072 49.14Z" fill="#E0757D"/>
<path d="M77.2711 49.6804C77.1572 49.6804 77.0412 49.6611 76.9277 49.6209C76.3952 49.4312 76.117 48.8456 76.3067 48.313C76.6781 47.2704 77.2966 46.3137 78.0951 45.5464C78.5035 45.1545 79.1513 45.168 79.5427 45.5754C79.9343 45.9833 79.9213 46.6313 79.5137 47.0229C78.9429 47.5713 78.5008 48.2548 78.2356 48.9998C78.0861 49.419 77.6918 49.6804 77.2711 49.6804Z" fill="#E0757D"/>
</g>
<defs>
<filter id="filter0_d_2_19968" x="0.247437" y="0" width="96.0828" height="89" filterUnits="userSpaceOnUse" color-interpolation-filters="sRGB">
<feFlood flood-opacity="0" result="BackgroundImageFix"/>
<feColorMatrix in="SourceAlpha" type="matrix" values="0 0 0 0 0 0 0 0 0 0 0 0 0 0 0 0 0 0 127 0" result="hardAlpha"/>
<feOffset dy="5"/>
<feGaussianBlur stdDeviation="4"/>
<feComposite in2="hardAlpha" operator="out"/>
<feColorMatrix type="matrix" values="0 0 0 0 0 0 0 0 0 0 0 0 0 0 0 0 0 0 0.1 0"/>
<feBlend mode="normal" in2="BackgroundImageFix" result="effect1_dropShadow_2_19968"/>
<feBlend mode="normal" in="SourceGraphic" in2="effect1_dropShadow_2_19968" result="shape"/>
</filter>
</defs>
</svg>
