<svg width="182" height="187" viewBox="0 0 182 187" fill="none" xmlns="http://www.w3.org/2000/svg">
<path d="M143.576 28.8052C116.994 30.1784 109.702 6.80381 87.3065 1.33131C63.4565 -4.49932 52.692 10.0071 50.1431 21.8678C48.1783 31.0108 44.0484 34.9795 33.1639 37.5217C25.4059 38.9492 18.5316 42.9927 20.3322 54.0838C22.1328 65.1749 18.4831 71.7974 13.0501 75.7649C7.61713 79.7331 2.54834 85.3664 0.765592 92.7052C-2.25397 105.128 3.8844 118.14 15.1977 123.909C27.9107 130.254 34.7384 137.2 33.8455 151.605C33.6223 155.206 35.1204 174.361 53.2971 168.571C57.8878 167.109 76.8789 157.247 88.4036 175.551C91.2731 180.108 98.3789 184.593 104.872 186.182C122.285 190.437 140.087 177.563 141.855 159.837C143.772 146.721 146.151 140.57 160.289 145.151C174.277 149.684 182.648 130.157 174.821 120.14C163.958 108.849 176.921 88.5447 181.037 71.602C186.664 48.4434 166.779 26.283 143.576 28.8052Z" fill="#D3CAE6"/>
</svg>
