<svg width="1920" height="278" viewBox="0 0 1920 278" fill="none" xmlns="http://www.w3.org/2000/svg">
<g filter="url(#filter0_d_91_2937)">
<path d="M34.1182 41.9545C15.6144 51.0463 -2.7362 61.6784 -16.0479 77.6272C-27.6029 91.4712 -34.7625 108.693 -38.8954 126.376C-57.147 204.466 -12.7021 291.04 58.1353 326.09C128.973 361.141 219.038 345.788 279.322 294.146C294.86 280.835 308.743 265.19 318.205 246.884C346.445 192.245 329.061 120.764 286.639 76.6753C216.836 4.13085 118.689 0.400766 34.1182 41.9545Z" fill="#F7A4A6"/>
<path d="M125.21 176.776C121.56 178.283 119.866 182.359 121.43 185.881L127.037 198.516C128.205 201.147 130.859 202.724 133.65 202.724C134.594 202.724 135.553 202.544 136.477 202.162C140.127 200.655 141.82 196.579 140.257 193.057L134.65 180.422C133.089 176.903 128.87 175.269 125.21 176.776Z" fill="#4F5463"/>
<path d="M73.7009 157.519L55.7238 152.898C51.8841 151.912 47.9472 154.112 46.9231 157.813C45.9242 161.428 48.0898 165.119 51.7653 166.209C50.3014 168.558 49.444 171.298 49.444 174.238C49.444 182.869 56.6974 189.865 65.6448 189.865C74.5923 189.865 81.8456 182.869 81.8456 174.238C81.8456 170.908 80.757 167.828 78.9162 165.292C79.4809 161.829 77.2896 158.442 73.7009 157.519Z" fill="#4F5463"/>
<path d="M228.642 166.463C232.149 164.668 233.486 160.47 231.625 157.086C229.764 153.701 225.414 152.419 221.903 154.208C215.491 157.489 208.596 159.65 201.409 160.632C197.477 161.17 194.742 164.679 195.299 168.472C195.547 170.166 196.417 171.625 197.648 172.678C197.595 173.192 197.567 173.712 197.567 174.238C197.567 182.868 204.82 189.865 213.767 189.865C222.715 189.865 229.968 182.868 229.968 174.238C229.968 171.534 229.255 168.991 228.002 166.773C228.214 166.667 228.431 166.571 228.642 166.463Z" fill="#4F5463"/>
<path d="M197.3 212.616C194.39 214.881 191.77 217.479 189.477 220.322C189.371 220.308 189.274 220.274 189.167 220.265C175.438 219.131 161.244 217.955 146.946 219.556C130.32 221.421 116.068 227.029 105.732 235.774C102.747 238.3 102.45 242.681 105.068 245.561C106.489 247.124 108.478 247.923 110.475 247.923C112.16 247.923 113.85 247.357 115.214 246.202C125.488 237.51 139.044 234.407 148.606 233.335C159.718 232.091 171.278 232.754 182.617 233.653C182.749 236.211 184.324 238.602 186.927 239.683C187.854 240.069 188.819 240.252 189.768 240.252C192.552 240.252 195.203 238.682 196.375 236.058C198.57 231.145 202.013 226.772 206.33 223.412C209.421 221.008 209.906 216.641 207.412 213.659C204.919 210.681 200.395 210.212 197.3 212.616Z" fill="#4F5463"/>
<path d="M182.022 51.6869C179.782 51.6869 177.78 50.1653 177.326 47.9664C176.808 45.4615 178.494 43.0267 181.089 42.5278C187.594 41.2771 193.697 39.8322 196.874 35.9367C198.742 33.6486 199.656 30.3536 199.45 26.6568C199.228 22.6833 197.807 18.7438 196.446 15.4149C195.476 13.0399 196.685 10.3545 199.148 9.41757C201.607 8.48068 204.394 9.6456 205.366 12.024C207.008 16.0426 208.727 20.8648 209.023 26.1601C209.356 32.0998 207.716 37.6028 204.408 41.6563C198.779 48.5556 189.262 50.3854 182.964 51.5966C182.648 51.6576 182.332 51.6869 182.022 51.6869Z" fill="#D36A7B"/>
<path d="M243.269 39.5993C242.639 39.5993 242.006 39.5801 241.368 39.5395C234.183 39.0823 227.96 35.7512 224.723 30.6298C223.202 28.2209 222.457 25.6167 221.98 23.6176C220.708 18.3032 220.302 12.8511 220.771 7.41473C220.991 4.86929 223.322 2.9808 225.946 3.19074C228.585 3.40293 230.545 5.63801 230.325 8.1823C229.938 12.6637 230.273 17.1575 231.321 21.5395C231.637 22.8602 232.103 24.5399 232.909 25.8165C234.501 28.3349 237.984 30.0575 242 30.3126C246.38 30.588 251.085 29.2967 255.128 28.0595C257.648 27.2874 260.345 28.6329 261.146 31.0678C261.947 33.5015 260.551 36.1011 258.028 36.8732C253.665 38.2098 248.632 39.5993 243.269 39.5993Z" fill="#D36A7B"/>
<path d="M219.708 87.4267C217.35 87.4267 215.294 85.7493 214.964 83.433C214.365 79.2293 212.794 73.6824 208.705 71.1223C203.629 67.9424 195.943 69.972 189.143 72.1258C186.629 72.9238 183.919 71.5997 183.094 69.1739C182.269 66.747 183.639 64.1349 186.154 63.3391C192.592 61.3016 204.575 57.5088 213.925 63.3662C219.568 66.9005 223.213 73.4035 224.463 82.1733C224.823 84.7029 222.989 87.0362 220.367 87.3838C220.145 87.4132 219.925 87.4267 219.708 87.4267Z" fill="#D36A7B"/>
<path d="M240.209 82.6298C238.538 82.6298 236.916 81.7866 236.034 80.2842C231.829 73.123 232.2 63.7212 236.957 56.8874C241.713 50.0558 250.601 46.1682 259.061 47.2135C261.687 47.5386 263.543 49.8549 263.207 52.3868C262.871 54.921 260.474 56.6966 257.844 56.3862C252.968 55.789 247.655 58.1099 244.915 62.0438C242.177 65.9777 241.954 71.6036 244.376 75.726C245.681 77.9487 244.871 80.7695 242.568 82.0282C241.821 82.4356 241.01 82.6298 240.209 82.6298Z" fill="#D36A7B"/>
</g>
<g filter="url(#filter1_d_91_2937)">
<path d="M449.118 30.8123C430.614 40.2383 412.264 51.2612 398.952 67.7963C387.397 82.1493 380.238 100.004 376.105 118.337C357.853 199.297 402.298 289.054 473.135 325.393C543.973 361.732 634.038 345.815 694.322 292.275C709.86 278.474 723.743 262.254 733.205 243.275C761.445 186.628 744.061 112.519 701.639 66.8095C631.836 -8.40177 533.689 -12.269 449.118 30.8123Z" fill="#A7BFD4"/>
<path d="M480.646 184.159C489.594 184.159 496.847 176.906 496.847 167.959C496.847 159.011 489.594 151.758 480.646 151.758C471.699 151.758 464.445 159.011 464.445 167.959C464.445 176.906 471.699 184.159 480.646 184.159Z" fill="#4F5463"/>
<path d="M628.767 184.159C637.715 184.159 644.968 176.906 644.968 167.959C644.968 159.011 637.715 151.758 628.767 151.758C619.82 151.758 612.566 159.011 612.566 167.959C612.566 176.906 619.82 184.159 628.767 184.159Z" fill="#4F5463"/>
<path d="M548.707 184.745C550.129 186.49 552.199 187.394 554.287 187.394C555.883 187.394 557.489 186.865 558.823 185.779C561.902 183.271 562.365 178.742 559.857 175.663L549.961 163.512C547.456 160.433 542.928 159.967 539.846 162.476C536.766 164.983 536.303 169.512 538.811 172.591L548.707 184.745Z" fill="#4F5463"/>
<path d="M456.781 132.617C461.373 128.026 468.227 125.857 474.639 127.154C477.235 127.678 478.913 130.207 478.388 132.803C477.86 135.398 475.334 137.075 472.739 136.551C469.045 135.804 464.897 137.408 462.666 140.435C461.076 142.569 458.091 143.018 455.963 141.448C453.832 139.876 453.379 136.875 454.95 134.745C455.509 133.988 456.122 133.277 456.781 132.617Z" fill="#A7BFD4"/>
<path d="M630.631 132.822C629.962 132.822 629.293 132.848 628.622 132.897C625.983 133.096 624.003 135.397 624.201 138.037C624.399 140.676 626.692 142.651 629.341 142.458C634.691 142.051 640.245 144.264 643.859 148.214C645.647 150.168 648.679 150.3 650.631 148.515C652.584 146.728 652.719 143.695 650.932 141.742C645.748 136.074 638.276 132.822 630.631 132.822Z" fill="#A7BFD4"/>
<path d="M613.497 202.142C612.445 204.764 611.441 207.081 610.51 209.508C609.64 211.757 608.7 213.992 608.029 216.414C606.976 220.075 604.892 222.263 602.564 224.03C599.369 226.454 595.786 227.522 591.751 226.927C590.12 226.688 588.576 226.132 587.039 224.795C585.437 223.379 583.75 222.213 582.184 220.69C578.987 217.563 576.245 217.722 573.809 220.297C570.669 223.647 568.112 227.781 566.357 232.867C565.084 236.523 563.86 236.984 561.029 234.245C559.492 232.747 558.099 230.819 556.634 229.106C555.393 227.657 554.272 227.376 553.021 228.3C550.895 229.85 548.964 231.477 547.633 234.434C545.394 239.423 542.427 243.571 539.224 247.328C538.431 248.257 537.486 248.383 536.449 247.528C534.701 246.054 532.968 244.478 531.28 242.826C530.084 241.624 528.901 240.711 527.541 240.43C525.491 240.012 523.845 240.523 523.065 243.104C522.305 245.68 521.61 248.335 520.859 250.941C520.569 251.961 520.28 252.981 519.938 254.209C516.778 252.826 514.927 249.529 513.243 246.123C512.859 245.35 512.815 244.063 512.918 243.159C513.477 237.911 514.636 233.117 517.093 229.335C518.673 226.894 520.737 226.4 523.24 228.091C525.208 229.408 527.135 230.899 529.001 232.568C532.718 235.846 532.943 236.434 535.861 232.105C538.637 227.977 541.438 223.939 544.28 219.891C545.193 218.604 546.119 217.282 547.232 216.331C549.313 214.534 551.617 214.526 554.079 217.43C554.686 218.142 555.345 218.808 555.919 219.561C558.024 222.432 560.123 221.506 561.173 219.598C562.368 217.424 563.628 215.33 564.73 213.051C566.308 209.799 568.635 207.708 570.897 205.536C572.451 204.044 574.216 204.053 576.176 205.502C577.419 206.399 578.765 207.268 579.795 208.579C581.639 210.969 583.752 212.344 585.865 213.557C590.457 216.208 594.558 215.844 597.895 212.18C599.218 210.718 600.223 208.725 601.529 207.202C603.309 205.097 605.092 202.926 607.125 201.271C608.906 199.652 611.154 199.758 613.497 202.142Z" fill="#4F5463"/>
</g>
<g filter="url(#filter2_d_91_2937)">
<g filter="url(#filter3_d_91_2937)">
<path d="M864.118 30.6641C845.614 40.0999 827.264 51.1342 813.952 67.6864C802.397 82.0542 795.238 99.9276 791.105 118.279C772.853 199.324 817.298 289.173 888.135 325.55C958.973 361.926 1049.04 345.993 1109.32 292.397C1124.86 278.582 1138.74 262.345 1148.21 243.346C1176.45 186.641 1159.06 112.455 1116.64 66.6986C1046.84 -8.5905 948.689 -12.4617 864.118 30.6641Z" fill="#98D2AD"/>
<path d="M899.547 184.17C908.494 184.17 915.747 176.909 915.747 167.952C915.747 158.996 908.494 151.735 899.547 151.735C890.599 151.735 883.346 158.996 883.346 167.952C883.346 176.909 890.599 184.17 899.547 184.17Z" fill="#4F5463"/>
<path d="M1047.67 184.17C1056.62 184.17 1063.87 176.909 1063.87 167.952C1063.87 158.996 1056.62 151.735 1047.67 151.735C1038.72 151.735 1031.47 158.996 1031.47 167.952C1031.47 176.909 1038.72 184.17 1047.67 184.17Z" fill="#4F5463"/>
<path d="M1042.88 206.013C1042.93 205.473 1042.94 204.923 1042.86 204.363C1042.32 200.424 1038.69 197.671 1034.76 198.214C995.553 203.616 955.621 205.619 916.066 204.16C914.439 204.114 912.936 204.621 911.7 205.485C908.327 206.652 906.251 210.145 907.003 213.732C909.05 223.497 911.37 234.566 918.224 243.81C924.544 252.334 934.536 258.82 947.922 263.087C957.337 266.09 966.916 267.579 976.186 267.579C988.251 267.579 999.79 265.056 1009.76 260.061C1030.57 249.637 1043.94 228.302 1043.02 206.97C1043.01 206.64 1042.94 206.328 1042.88 206.013ZM1003.33 247.189C989.017 254.355 970.416 255.153 952.286 249.371C941.833 246.038 934.257 241.281 929.772 235.23C926.312 230.564 924.355 224.773 922.862 218.748C928.946 218.908 935.035 219.016 941.131 219.016C970.275 219.016 999.495 217.174 1028.38 213.552C1026.57 227.123 1016.91 240.382 1003.33 247.189Z" fill="#4F5463"/>
<path d="M960.225 157.5C956.613 159.152 955.023 163.422 956.674 167.037L961.528 177.675C962.736 180.321 965.344 181.883 968.072 181.883C969.072 181.883 970.088 181.673 971.055 181.23C974.668 179.578 976.257 175.308 974.607 171.693L969.753 161.056C968.103 157.438 963.834 155.851 960.225 157.5Z" fill="#4F5463"/>
</g>
</g>
<g filter="url(#filter4_d_91_2937)">
<path d="M1279.12 30.8123C1260.61 40.2384 1242.26 51.2613 1228.95 67.7963C1217.4 82.1493 1210.24 100.004 1206.1 118.337C1187.85 199.297 1232.3 289.054 1303.14 325.393C1373.97 361.732 1464.04 345.815 1524.32 292.275C1539.86 278.474 1553.74 262.254 1563.21 243.275C1591.45 186.628 1574.06 112.519 1531.64 66.8095C1461.84 -8.40177 1363.69 -12.269 1279.12 30.8123Z" fill="#F7B1CB"/>
<path d="M1316.33 184.16C1325.28 184.16 1332.53 176.907 1332.53 167.959C1332.53 159.012 1325.28 151.758 1316.33 151.758C1307.38 151.758 1300.13 159.012 1300.13 167.959C1300.13 176.907 1307.38 184.16 1316.33 184.16Z" fill="#4F5463"/>
<path d="M1464.45 184.16C1473.4 184.16 1480.66 176.907 1480.66 167.959C1480.66 159.012 1473.4 151.758 1464.45 151.758C1455.51 151.758 1448.25 159.012 1448.25 167.959C1448.25 176.907 1455.51 184.16 1464.45 184.16Z" fill="#4F5463"/>
<path d="M1377.96 186.066C1379.05 188.936 1381.78 190.702 1384.68 190.702C1385.53 190.702 1386.39 190.55 1387.23 190.229C1390.94 188.817 1392.81 184.664 1391.39 180.952L1387.22 169.98C1385.81 166.269 1381.67 164.404 1377.95 165.814C1374.24 167.224 1372.37 171.378 1373.78 175.09L1377.96 186.066Z" fill="#4F5463"/>
<path d="M1441.16 198.822C1437.68 196.905 1433.31 198.175 1431.39 201.653C1423.81 215.421 1408.77 224.796 1393.07 225.536C1377.36 226.247 1361.51 218.358 1352.67 205.364C1350.44 202.082 1345.96 201.232 1342.68 203.466C1339.4 205.7 1338.55 210.172 1340.78 213.456C1351.87 229.756 1371.39 239.963 1391.09 239.963C1391.97 239.963 1392.86 239.942 1393.75 239.9C1414.33 238.93 1434.05 226.639 1443.99 208.588C1445.91 205.11 1444.64 200.738 1441.16 198.822Z" fill="#4F5463"/>
<path d="M1246.46 219.272C1246.05 219.272 1245.62 219.217 1245.2 219.102C1242.65 218.407 1241.14 215.773 1241.84 213.219C1243.34 207.677 1246.36 202.674 1250.56 198.752C1252.49 196.943 1255.52 197.047 1257.33 198.982C1259.14 200.917 1259.04 203.95 1257.1 205.757C1254.25 208.424 1252.11 211.968 1251.09 215.735C1250.51 217.869 1248.57 219.272 1246.46 219.272Z" fill="#E0757D"/>
<path d="M1264.78 219.235C1263.77 219.235 1262.75 218.916 1261.88 218.259C1259.77 216.658 1259.36 213.65 1260.96 211.542L1268.37 201.795C1269.97 199.688 1272.98 199.28 1275.09 200.877C1277.19 202.48 1277.6 205.487 1276 207.595L1268.6 217.34C1267.66 218.582 1266.23 219.235 1264.78 219.235Z" fill="#E0757D"/>
<path d="M1289.43 221.765C1288.89 221.765 1288.35 221.675 1287.82 221.486C1285.32 220.598 1284.02 217.856 1284.91 215.362C1286.65 210.48 1289.55 206 1293.28 202.407C1295.2 200.572 1298.23 200.635 1300.06 202.543C1301.9 204.453 1301.84 207.487 1299.93 209.321C1297.25 211.889 1295.18 215.089 1293.94 218.578C1293.24 220.541 1291.4 221.765 1289.43 221.765Z" fill="#E0757D"/>
<path d="M1482.25 219.272C1481.84 219.272 1481.41 219.217 1480.99 219.102C1478.44 218.407 1476.93 215.773 1477.62 213.219C1479.13 207.677 1482.15 202.674 1486.35 198.752C1488.28 196.943 1491.31 197.047 1493.12 198.982C1494.93 200.917 1494.83 203.95 1492.89 205.757C1490.04 208.424 1487.9 211.968 1486.87 215.735C1486.29 217.869 1484.36 219.272 1482.25 219.272Z" fill="#E0757D"/>
<path d="M1500.57 219.235C1499.56 219.235 1498.54 218.916 1497.67 218.259C1495.56 216.658 1495.15 213.65 1496.75 211.542L1504.16 201.795C1505.76 199.688 1508.76 199.28 1510.87 200.877C1512.98 202.48 1513.39 205.487 1511.79 207.595L1504.39 217.34C1503.44 218.582 1502.01 219.235 1500.57 219.235Z" fill="#E0757D"/>
<path d="M1525.22 221.765C1524.68 221.765 1524.14 221.675 1523.61 221.486C1521.11 220.598 1519.81 217.856 1520.7 215.362C1522.44 210.48 1525.33 206 1529.07 202.407C1530.99 200.572 1534.02 200.635 1535.85 202.543C1537.69 204.453 1537.63 207.487 1535.72 209.321C1533.04 211.889 1530.97 215.089 1529.73 218.578C1529.03 220.541 1527.18 221.765 1525.22 221.765Z" fill="#E0757D"/>
</g>
<g filter="url(#filter5_d_91_2937)">
<path d="M1694.12 30.8123C1675.61 40.2383 1657.26 51.2613 1643.95 67.7963C1632.4 82.1493 1625.24 100.004 1621.1 118.337C1602.85 199.297 1647.3 289.054 1718.14 325.393C1788.97 361.732 1879.04 345.815 1939.32 292.275C1954.86 278.474 1968.74 262.254 1978.21 243.275C2006.45 186.628 1989.06 112.519 1946.64 66.8095C1876.84 -8.40177 1778.69 -12.269 1694.12 30.8123Z" fill="#AFE0E9"/>
<path d="M1731.33 184.16C1740.28 184.16 1747.53 176.907 1747.53 167.959C1747.53 159.012 1740.28 151.758 1731.33 151.758C1722.38 151.758 1715.13 159.012 1715.13 167.959C1715.13 176.907 1722.38 184.16 1731.33 184.16Z" fill="#4F5463"/>
<path d="M1879.45 184.16C1888.4 184.16 1895.66 176.907 1895.66 167.959C1895.66 159.012 1888.4 151.758 1879.45 151.758C1870.51 151.758 1863.25 159.012 1863.25 167.959C1863.25 176.907 1870.51 184.16 1879.45 184.16Z" fill="#4F5463"/>
<path d="M1799.46 198.387C1800.61 198.387 1801.78 198.11 1802.86 197.529C1806.36 195.649 1807.67 191.289 1805.79 187.791L1796.11 169.781C1794.23 166.283 1789.87 164.975 1786.37 166.852C1782.88 168.731 1781.56 173.092 1783.44 176.59L1793.12 194.6C1794.42 197.014 1796.9 198.387 1799.46 198.387Z" fill="#4F5463"/>
<path d="M1812.04 215.867C1796.87 215.386 1781.5 221.651 1770.99 232.635C1768.25 235.505 1768.35 240.057 1771.22 242.802C1774.09 245.547 1778.64 245.444 1781.39 242.576C1789.12 234.495 1800.42 229.912 1811.58 230.241C1822.76 230.599 1833.73 235.924 1840.92 244.485C1842.35 246.176 1844.38 247.048 1846.43 247.048C1848.07 247.048 1849.71 246.494 1851.06 245.361C1854.09 242.806 1854.49 238.27 1851.93 235.23C1842.15 223.593 1827.24 216.355 1812.04 215.867Z" fill="#4F5463"/>
<path d="M1911.94 212.926C1910 212.926 1908.17 212.312 1906.68 211.144C1903.18 208.408 1902.35 203.905 1904.2 197.763L1907.49 186.849C1908.25 184.315 1910.93 182.876 1913.46 183.642C1914.6 183.984 1915.52 184.714 1916.11 185.644C1916.36 185.849 1916.59 186.082 1916.8 186.343C1919.47 189.672 1921.27 193.656 1922 197.861C1922.73 202.116 1922.08 205.853 1920.1 208.666C1918.55 210.873 1916.01 212.426 1913.32 212.823C1912.85 212.892 1912.39 212.926 1911.94 212.926Z" fill="#8BBADB"/>
<path d="M1724.04 204.025C1717.78 204.025 1711.52 201.502 1707.05 197.128C1705.16 195.277 1705.13 192.242 1706.98 190.35C1708.83 188.457 1711.87 188.427 1713.76 190.277C1716.65 193.109 1720.79 194.648 1724.83 194.414C1727.48 194.236 1729.75 196.271 1729.9 198.914C1730.06 201.557 1728.05 203.827 1725.4 203.985C1724.95 204.012 1724.49 204.025 1724.04 204.025Z" fill="#8BBADB"/>
<path d="M1877.83 200.32C1875.82 200.32 1873.81 200.04 1871.87 199.472C1869.33 198.728 1867.87 196.066 1868.62 193.525C1869.36 190.984 1872.03 189.531 1874.56 190.271C1877.44 191.111 1880.61 190.807 1883.27 189.438C1885.62 188.23 1888.51 189.152 1889.72 191.506C1890.94 193.86 1890.01 196.75 1887.66 197.963C1884.63 199.523 1881.23 200.32 1877.83 200.32Z" fill="#8BBADB"/>
</g>
<defs>
<filter id="filter0_d_91_2937" x="-51" y="0.174805" width="391" height="357.837" filterUnits="userSpaceOnUse" color-interpolation-filters="sRGB">
<feFlood flood-opacity="0" result="BackgroundImageFix"/>
<feColorMatrix in="SourceAlpha" type="matrix" values="0 0 0 0 0 0 0 0 0 0 0 0 0 0 0 0 0 0 127 0" result="hardAlpha"/>
<feOffset dy="5"/>
<feGaussianBlur stdDeviation="4"/>
<feComposite in2="hardAlpha" operator="out"/>
<feColorMatrix type="matrix" values="0 0 0 0 0 0 0 0 0 0 0 0 0 0 0 0 0 0 0.1 0"/>
<feBlend mode="normal" in2="BackgroundImageFix" result="effect1_dropShadow_91_2937"/>
<feBlend mode="normal" in="SourceGraphic" in2="effect1_dropShadow_91_2937" result="shape"/>
</filter>
<filter id="filter1_d_91_2937" x="364" y="0.176758" width="391" height="357.834" filterUnits="userSpaceOnUse" color-interpolation-filters="sRGB">
<feFlood flood-opacity="0" result="BackgroundImageFix"/>
<feColorMatrix in="SourceAlpha" type="matrix" values="0 0 0 0 0 0 0 0 0 0 0 0 0 0 0 0 0 0 127 0" result="hardAlpha"/>
<feOffset dy="5"/>
<feGaussianBlur stdDeviation="4"/>
<feComposite in2="hardAlpha" operator="out"/>
<feColorMatrix type="matrix" values="0 0 0 0 0 0 0 0 0 0 0 0 0 0 0 0 0 0 0.1 0"/>
<feBlend mode="normal" in2="BackgroundImageFix" result="effect1_dropShadow_91_2937"/>
<feBlend mode="normal" in="SourceGraphic" in2="effect1_dropShadow_91_2937" result="shape"/>
</filter>
<filter id="filter2_d_91_2937" x="779" y="0" width="391" height="358.188" filterUnits="userSpaceOnUse" color-interpolation-filters="sRGB">
<feFlood flood-opacity="0" result="BackgroundImageFix"/>
<feColorMatrix in="SourceAlpha" type="matrix" values="0 0 0 0 0 0 0 0 0 0 0 0 0 0 0 0 0 0 127 0" result="hardAlpha"/>
<feOffset dy="5"/>
<feGaussianBlur stdDeviation="4"/>
<feComposite in2="hardAlpha" operator="out"/>
<feColorMatrix type="matrix" values="0 0 0 0 0 0 0 0 0 0 0 0 0 0 0 0 0 0 0.1 0"/>
<feBlend mode="normal" in2="BackgroundImageFix" result="effect1_dropShadow_91_2937"/>
<feBlend mode="normal" in="SourceGraphic" in2="effect1_dropShadow_91_2937" result="shape"/>
</filter>
<filter id="filter3_d_91_2937" x="783" y="3" width="383" height="350.188" filterUnits="userSpaceOnUse" color-interpolation-filters="sRGB">
<feFlood flood-opacity="0" result="BackgroundImageFix"/>
<feColorMatrix in="SourceAlpha" type="matrix" values="0 0 0 0 0 0 0 0 0 0 0 0 0 0 0 0 0 0 127 0" result="hardAlpha"/>
<feOffset dy="4"/>
<feGaussianBlur stdDeviation="2"/>
<feComposite in2="hardAlpha" operator="out"/>
<feColorMatrix type="matrix" values="0 0 0 0 0 0 0 0 0 0 0 0 0 0 0 0 0 0 0.25 0"/>
<feBlend mode="normal" in2="BackgroundImageFix" result="effect1_dropShadow_91_2937"/>
<feBlend mode="normal" in="SourceGraphic" in2="effect1_dropShadow_91_2937" result="shape"/>
</filter>
<filter id="filter4_d_91_2937" x="1194" y="0.176758" width="391" height="357.834" filterUnits="userSpaceOnUse" color-interpolation-filters="sRGB">
<feFlood flood-opacity="0" result="BackgroundImageFix"/>
<feColorMatrix in="SourceAlpha" type="matrix" values="0 0 0 0 0 0 0 0 0 0 0 0 0 0 0 0 0 0 127 0" result="hardAlpha"/>
<feOffset dy="5"/>
<feGaussianBlur stdDeviation="4"/>
<feComposite in2="hardAlpha" operator="out"/>
<feColorMatrix type="matrix" values="0 0 0 0 0 0 0 0 0 0 0 0 0 0 0 0 0 0 0.1 0"/>
<feBlend mode="normal" in2="BackgroundImageFix" result="effect1_dropShadow_91_2937"/>
<feBlend mode="normal" in="SourceGraphic" in2="effect1_dropShadow_91_2937" result="shape"/>
</filter>
<filter id="filter5_d_91_2937" x="1609" y="0.176758" width="391" height="357.834" filterUnits="userSpaceOnUse" color-interpolation-filters="sRGB">
<feFlood flood-opacity="0" result="BackgroundImageFix"/>
<feColorMatrix in="SourceAlpha" type="matrix" values="0 0 0 0 0 0 0 0 0 0 0 0 0 0 0 0 0 0 127 0" result="hardAlpha"/>
<feOffset dy="5"/>
<feGaussianBlur stdDeviation="4"/>
<feComposite in2="hardAlpha" operator="out"/>
<feColorMatrix type="matrix" values="0 0 0 0 0 0 0 0 0 0 0 0 0 0 0 0 0 0 0.1 0"/>
<feBlend mode="normal" in2="BackgroundImageFix" result="effect1_dropShadow_91_2937"/>
<feBlend mode="normal" in="SourceGraphic" in2="effect1_dropShadow_91_2937" result="shape"/>
</filter>
</defs>
</svg>
