<svg width="1920" height="323" viewBox="0 0 1920 323" fill="none" xmlns="http://www.w3.org/2000/svg">
<rect x="-57" width="375" height="375" rx="80" fill="#01B26E"/>
<path d="M205.475 129.99C204.582 129.99 203.69 129.691 202.797 129.244C194.912 124.617 186.878 122.08 178.1 121.185C177.208 121.035 176.464 120.886 175.72 120.438C173.34 118.946 172.447 115.961 173.34 112.827C174.53 109.245 177.505 106.857 180.778 107.007C180.927 107.007 180.927 107.007 181.076 107.007C191.044 108.051 200.863 111.185 209.938 116.558C213.063 118.498 213.955 122.528 211.872 126.109C210.385 128.647 207.855 130.139 205.475 129.99Z" fill="#074785"/>
<path d="M55.1488 129.991C55.9968 129.991 56.8448 129.705 57.6928 129.277C65.1837 124.852 72.8158 122.425 81.1547 121.568C82.0027 121.426 82.7094 121.283 83.416 120.855C85.6774 119.427 86.5254 116.572 85.6774 113.574C84.5467 110.148 81.72 107.864 78.6106 108.006C78.4693 108.006 78.4693 108.006 78.3279 108.006C68.8584 109.006 59.5302 112.004 50.9087 117.143C47.9406 118.999 47.0926 122.853 49.0713 126.279C50.4847 128.563 52.7461 130.134 55.1488 129.991Z" fill="#074785"/>
<path d="M126.828 180.059C124.653 205.426 102.325 224.125 76.9515 221.806C51.5783 219.631 32.8746 197.308 35.1945 171.941C37.3693 146.574 59.6977 127.875 85.071 130.194C110.299 132.514 129.003 154.837 126.828 180.059Z" fill="white"/>
<path d="M117.855 179.428C116.284 197.856 99.9991 211.569 81.5716 209.855C63.1441 208.284 49.4306 191.999 51.1447 173.572C52.7161 155.144 69.0009 141.431 87.4284 143.145C105.856 144.716 119.569 161.001 117.855 179.428Z" fill="#074785"/>
<path d="M68.9788 232.981C68.5487 238.445 61.8111 242.509 53.7832 241.948C45.7554 241.388 39.5911 236.484 40.0212 231.019C40.4513 225.555 47.1889 221.491 55.2168 222.052C63.2446 222.472 69.4089 227.376 68.9788 232.981Z" fill="#29AEFD"/>
<path d="M217.979 235.559C217.553 241.31 211.022 245.548 203.355 244.942C195.689 244.337 189.726 239.192 190.01 233.441C190.436 227.69 196.966 223.452 204.633 224.058C212.442 224.663 218.404 229.808 217.979 235.559Z" fill="#29AEFD"/>
<path d="M112.643 164.935C109.051 159.429 104.561 154.911 98.1256 152.229C95.282 150.959 93.6358 155.335 96.4793 156.464C101.568 158.582 105.309 162.535 108.302 166.911C109.799 169.311 114.289 167.334 112.643 164.935Z" fill="white"/>
<path d="M91.4467 148.765C90.7106 148.628 89.9745 148.355 89.2383 148.082C88.0606 147.809 86.5883 148.219 86.1466 149.312C85.705 150.405 86.2939 151.771 87.4717 152.181C88.2078 152.317 88.9439 152.591 89.68 152.864C90.8578 153.274 92.3301 152.727 92.7717 151.634C93.3606 150.541 92.7717 149.175 91.4467 148.765Z" fill="white"/>
<path d="M114.638 173.195C114.276 172.149 112.948 171.757 112.103 172.149C111.138 172.672 110.776 173.849 111.138 174.895C111.138 174.895 111.138 174.895 111.138 174.765C111.138 175.941 111.741 176.988 112.948 176.988C113.914 177.118 115 176.203 115 175.026C115 174.503 114.879 173.98 114.638 173.195Z" fill="white"/>
<path d="M225.828 180.059C223.653 205.426 201.325 224.125 175.952 221.806C150.578 219.631 131.875 197.308 134.194 171.941C136.369 146.574 158.698 127.875 184.071 130.194C209.299 132.369 228.003 154.692 225.828 180.059Z" fill="white"/>
<path d="M210.874 179.428C209.279 197.856 192.746 211.569 174.038 209.855C155.329 208.284 141.407 191.999 143.147 173.572C144.742 155.144 161.275 141.431 179.984 143.145C198.692 144.716 212.47 161.001 210.874 179.428Z" fill="#074785"/>
<path d="M205.634 164.743C202.044 158.893 197.556 154.093 191.124 151.243C188.282 149.893 186.636 154.543 189.479 155.743C194.564 157.993 198.304 162.193 201.296 166.843C202.941 169.393 207.279 167.293 205.634 164.743Z" fill="white"/>
<path d="M184.511 147.773C183.766 147.635 183.021 147.359 182.277 147.083C181.085 146.807 179.595 147.221 179.148 148.326C178.701 149.431 179.297 150.812 180.489 151.227C181.234 151.365 181.979 151.641 182.723 151.917C183.915 152.193 185.405 151.779 185.852 150.674C186.299 149.431 185.703 148.05 184.511 147.773Z" fill="white"/>
<path d="M208.547 173.195C208.095 172.149 206.435 171.757 205.379 172.149C204.172 172.672 203.72 173.849 204.172 174.895C204.172 174.895 204.172 174.895 204.172 174.765C204.172 175.941 205.077 176.988 206.435 176.988C207.642 177.118 209 176.203 209 175.026C209 174.634 208.849 173.98 208.547 173.195Z" fill="white"/>
<path fill-rule="evenodd" clip-rule="evenodd" d="M106.942 259C101.571 255.074 97.9411 248.625 97.3604 242.315C96.7797 236.847 96.4893 230.257 99.8284 225.49C103.168 220.723 108.83 218.059 114.782 218.901C118.266 219.461 121.46 220.443 124.364 222.546C128.284 225.35 130.461 223.107 133.51 220.583C136.414 218.2 139.317 215.676 143.382 215.115C150.351 214.134 157.755 219.602 160.659 225.21C163.998 231.519 163.272 238.389 161.53 244.979C160.513 248.625 157.9 251.849 156.013 255.214C139.172 249.746 122.767 250.447 106.942 259Z" fill="#074785"/>
<path fill-rule="evenodd" clip-rule="evenodd" d="M108 259.312C124.237 244.148 138.009 243.147 157 255.45C143.228 272.044 124.817 273.475 108 259.312Z" fill="#FD6085"/>
<rect x="358" width="375" height="375" rx="80" fill="#368AE9"/>
<path d="M543.253 181.883C540.672 206.544 518.592 224.323 493.931 221.742C469.269 219.162 451.49 197.081 454.071 172.42C456.652 147.759 478.732 129.98 503.394 132.56C527.912 135.141 545.834 157.222 543.253 181.883Z" fill="white"/>
<path d="M535.081 181.023C533.217 199.232 516.872 212.423 498.663 210.559C480.454 208.695 467.263 192.35 469.127 174.14C470.991 155.931 487.336 142.74 505.545 144.604C523.898 146.468 537.089 162.813 535.081 181.023Z" fill="#074785"/>
<path d="M530.062 166.255C526.765 160.663 522.606 156.075 516.585 153.207C513.86 151.917 512.283 156.218 514.864 157.509C519.596 159.803 523.18 163.674 525.761 168.119C527.338 170.7 531.496 168.836 530.062 166.255Z" fill="white"/>
<path d="M509.702 149.766C508.985 149.479 508.268 149.336 507.695 149.049C506.548 148.619 505.257 149.049 504.684 150.339C504.254 151.486 504.827 152.92 505.974 153.35C506.691 153.637 507.408 153.781 507.982 154.067C509.129 154.497 510.419 153.924 510.993 152.777C511.423 151.63 510.849 150.196 509.702 149.766Z" fill="white"/>
<path d="M532.499 174.427C532.069 173.28 530.492 172.85 529.488 173.28C528.341 173.853 527.911 175.144 528.341 176.291C528.341 176.291 528.341 176.291 528.341 176.147C528.341 177.438 529.058 178.441 530.349 178.585C531.496 178.728 532.786 177.868 532.786 176.578C532.93 175.861 532.786 175.287 532.499 174.427Z" fill="white"/>
<path d="M528.341 176.291C528.341 176.434 528.341 176.434 528.341 176.291C528.198 175.717 528.341 176.147 528.341 176.291Z" fill="white"/>
<path d="M640.751 183.029C638.17 207.691 616.09 225.47 591.429 222.889C566.767 220.308 548.988 198.228 551.569 173.566C554.15 148.905 576.23 131.126 600.892 133.707C625.553 136.288 643.332 158.368 640.751 183.029Z" fill="white"/>
<path d="M626.271 182.313C624.407 200.522 608.062 213.713 589.852 211.849C571.643 209.985 558.452 193.64 560.316 175.43C562.18 157.221 578.525 144.03 596.735 145.894C614.944 147.758 628.135 164.103 626.271 182.313Z" fill="#074785"/>
<path d="M621.107 167.545C617.809 161.953 613.651 157.365 607.629 154.498C604.905 153.207 603.328 157.508 605.909 158.799C610.64 161.093 614.225 164.964 616.806 169.409C618.383 171.99 622.684 170.126 621.107 167.545Z" fill="white"/>
<path d="M600.749 151.057C600.032 150.77 599.315 150.627 598.742 150.34C597.595 149.91 596.304 150.483 595.731 151.63C595.301 152.778 595.874 154.211 597.021 154.641C597.738 154.928 598.455 155.072 599.028 155.358C600.175 155.788 601.466 155.215 602.039 154.068C602.47 152.921 601.896 151.487 600.749 151.057Z" fill="white"/>
<path d="M623.546 175.718C623.116 174.571 621.539 174.141 620.535 174.571C619.388 175.144 618.958 176.435 619.388 177.582C619.388 177.582 619.388 177.582 619.388 177.438C619.388 178.729 620.105 179.876 621.396 179.876C622.543 180.019 623.833 179.159 623.833 177.869C623.976 177.295 623.833 176.578 623.546 175.718Z" fill="white"/>
<path d="M619.388 177.581C619.388 177.724 619.388 177.724 619.388 177.581C619.388 177.724 619.531 177.724 619.388 177.581C619.388 177.437 619.245 177.007 619.388 177.581Z" fill="white"/>
<path d="M619.389 177.725C619.389 178.155 619.532 177.868 619.389 177.725V177.725Z" fill="white"/>
<path d="M624.851 136C624.003 136 623.155 135.714 622.307 135.286C614.816 130.859 607.184 128.431 598.845 127.574C597.997 127.431 597.291 127.288 596.584 126.86C594.323 125.432 593.475 122.575 594.323 119.576C595.453 116.149 598.28 113.864 601.389 114.006C601.531 114.006 601.531 114.006 601.672 114.006C611.142 115.006 620.47 118.005 629.091 123.147C632.059 125.003 632.907 128.859 630.929 132.287C629.515 134.572 627.254 136 624.851 136Z" fill="#074785"/>
<path d="M467.149 136C467.997 136 468.845 135.714 469.693 135.286C477.184 130.859 484.816 128.431 493.155 127.574C494.003 127.431 494.709 127.288 495.416 126.86C497.677 125.432 498.525 122.575 497.677 119.576C496.547 116.149 493.72 113.864 490.611 114.006C490.469 114.006 490.469 114.006 490.328 114.006C480.858 115.006 471.53 118.005 462.909 123.147C459.941 125.003 459.093 128.859 461.071 132.287C462.485 134.572 464.887 136 467.149 136Z" fill="#074785"/>
<path fill-rule="evenodd" clip-rule="evenodd" d="M521.999 222.716C522.143 235.493 508.333 245.857 491.216 245.999C474.098 246.141 460.145 235.919 460.001 223.284C459.857 210.507 473.667 200.143 490.784 200.001C508.046 199.859 521.999 210.081 521.999 222.716Z" fill="#368AE9"/>
<path fill-rule="evenodd" clip-rule="evenodd" d="M634.999 222.718C635.141 235.494 621.745 245.857 605.214 245.999C588.682 246.14 575.144 235.92 575.001 223.286C574.859 210.51 588.255 200.148 604.786 200.006C621.318 199.722 634.856 209.942 634.999 222.718Z" fill="#368AE9"/>
<path d="M581.82 256.546C578.564 246.204 574.741 235.72 568.228 226.936C562.848 219.71 555.061 213.901 545.576 215.177C526.604 217.727 521.507 237.987 518.109 253.713C517.826 255.271 517.401 256.688 517.118 258.246C515.985 263.063 523.348 265.047 524.48 260.23C526.179 253.146 527.595 245.779 530.002 238.978C532.409 232.319 536.09 226.086 542.886 223.677C550.531 220.844 557.044 224.811 561.716 230.903C567.945 238.978 571.626 248.896 574.599 258.671C575.874 263.347 583.236 261.222 581.82 256.546Z" fill="#074785"/>
<path d="M504.112 224.897C504.112 231.923 494.075 237.658 481.888 237.658C469.557 237.658 459.664 231.923 459.664 224.897C459.664 217.872 469.557 212.137 481.888 212.137C494.075 212.137 504.112 217.872 504.112 224.897Z" fill="#FFDE41"/>
<path d="M588.275 224.754C588.275 231.78 598.169 237.515 610.499 237.515C622.83 237.515 632.723 231.78 632.723 224.754C632.723 217.728 622.83 211.993 610.499 211.993C598.169 211.993 588.275 217.728 588.275 224.754Z" fill="#FFDE41"/>
<rect x="773" width="375" height="375" rx="80" fill="#F97243"/>
<path d="M940.313 215.12C940.161 229.727 945.943 244.487 962.529 244.791C979.723 245.095 982.614 228.814 982.614 215.12C982.614 209.033 973.18 209.033 973.18 215.12C973.18 222.575 973.789 233.987 964.051 235.205C952.03 236.726 949.595 224.401 949.747 215.12C949.9 209.033 940.313 209.033 940.313 215.12Z" fill="#074785"/>
<path d="M861.799 126.106C866.364 130.062 870.929 133.866 875.494 137.822C878.08 140.104 881.884 136.3 879.298 134.018C874.733 130.062 870.168 126.258 865.603 122.302C863.016 120.171 859.212 123.823 861.799 126.106Z" fill="#074785"/>
<path d="M877.472 111.803C880.058 118.041 882.797 124.128 885.384 130.366C886.753 133.562 891.318 130.823 889.949 127.627C887.362 121.389 884.623 115.302 882.036 109.064C880.819 106.021 876.102 108.759 877.472 111.803Z" fill="#074785"/>
<path d="M898.622 107.694C898.013 114.237 897.557 120.932 896.948 127.475C896.644 130.975 901.969 130.823 902.274 127.475C902.882 120.932 903.339 114.237 903.948 107.694C904.252 104.347 898.926 104.347 898.622 107.694Z" fill="#074785"/>
<path d="M1055.65 126.106C1051.09 130.062 1046.52 133.866 1041.96 137.822C1039.37 140.104 1035.57 136.3 1038.15 134.018C1042.72 130.062 1047.28 126.258 1051.85 122.302C1054.43 120.171 1058.24 123.823 1055.65 126.106Z" fill="#074785"/>
<path d="M1039.83 111.803C1037.24 118.041 1034.5 124.128 1031.91 130.366C1030.54 133.562 1025.98 130.823 1027.35 127.627C1029.94 121.389 1032.67 115.302 1035.26 109.064C1036.63 106.021 1041.2 108.759 1039.83 111.803Z" fill="#074785"/>
<path d="M1018.68 107.694C1019.28 114.237 1019.74 120.932 1020.35 127.475C1020.65 130.975 1015.33 130.823 1015.02 127.475C1014.42 120.932 1013.96 114.237 1013.35 107.694C1013.05 104.347 1018.37 104.347 1018.68 107.694Z" fill="#074785"/>
<path d="M956.292 170.537C953.401 196.861 929.664 215.729 903.492 212.685C877.168 209.794 858.3 186.057 861.344 159.886C864.235 133.562 887.972 114.694 914.143 117.737C940.467 120.628 959.335 144.365 956.292 170.537Z" fill="white"/>
<path d="M947.77 169.623C945.64 189.1 928.142 202.946 908.665 200.816C889.188 198.686 875.342 181.187 877.472 161.711C879.602 142.234 897.101 128.388 916.577 130.518C935.902 132.648 949.901 150.147 947.77 169.623Z" fill="#074785"/>
<path d="M905.469 226.532C904.861 232.466 897.405 236.423 889.036 235.51C880.667 234.597 874.428 228.967 875.037 223.185C875.646 217.25 883.102 213.294 891.47 214.207C899.991 215.12 906.23 220.598 905.469 226.532Z" fill="#FFAAE1"/>
<path d="M1046.68 223.336C1047.28 229.422 1040.74 235.052 1032.07 235.813C1023.39 236.726 1015.94 232.466 1015.33 226.379C1014.72 220.293 1021.26 214.663 1029.94 213.902C1038.61 212.989 1046.07 217.25 1046.68 223.336Z" fill="#FFAAE1"/>
<path d="M942.445 153.799C938.945 147.865 934.532 142.843 928.294 139.8C925.403 138.431 923.729 142.996 926.468 144.365C931.489 146.8 935.293 151.06 938.032 155.777C939.554 158.516 943.966 156.538 942.445 153.799Z" fill="white"/>
<path d="M920.837 136.148C920.076 135.843 919.315 135.691 918.706 135.387C917.489 134.931 916.12 135.387 915.511 136.756C915.054 137.974 915.663 139.495 916.88 139.952C917.641 140.256 918.402 140.408 919.011 140.713C920.228 141.169 921.597 140.713 922.206 139.343C922.662 138.126 922.054 136.452 920.837 136.148Z" fill="white"/>
<path d="M945.032 162.623C944.575 161.406 942.901 160.95 941.836 161.406C940.619 162.015 940.162 163.384 940.619 164.601C940.619 164.601 940.619 164.601 940.619 164.449C940.619 165.819 941.38 167.036 942.749 167.188C943.966 167.34 945.336 166.427 945.488 165.058C945.488 164.145 945.336 163.384 945.032 162.623Z" fill="white"/>
<path d="M940.619 164.602C940.315 163.841 940.467 164.45 940.619 164.602V164.602Z" fill="white"/>
<path d="M1060.37 172.514C1057.48 198.838 1033.74 217.706 1007.57 214.663C981.244 211.772 962.376 188.035 965.42 161.863C968.311 135.539 992.048 116.671 1018.22 119.715C1044.39 122.606 1063.26 146.191 1060.37 172.514Z" fill="white"/>
<path d="M1044.85 171.602C1042.72 191.078 1025.22 204.925 1005.74 202.795C986.267 200.664 972.42 183.166 974.55 163.689C976.68 144.213 994.179 130.366 1013.66 132.496C1032.98 134.779 1046.98 152.277 1044.85 171.602Z" fill="#074785"/>
<path d="M1039.52 155.929C1036.02 149.995 1031.61 144.973 1025.37 141.93C1022.48 140.561 1020.81 145.125 1023.55 146.495C1028.57 148.929 1032.37 153.19 1035.11 157.907C1036.63 160.494 1041.04 158.516 1039.52 155.929Z" fill="white"/>
<path d="M1017.92 138.126C1017.16 137.822 1016.4 137.67 1015.79 137.366C1014.57 136.909 1013.2 137.366 1012.59 138.735C1012.13 139.952 1012.74 141.474 1013.96 141.93C1014.72 142.235 1015.48 142.387 1016.09 142.691C1017.31 143.148 1018.68 142.691 1019.29 141.322C1019.74 140.104 1019.13 138.583 1017.92 138.126Z" fill="white"/>
<path d="M1042.11 164.602C1041.65 163.385 1039.98 162.928 1038.91 163.385C1037.7 163.993 1037.24 165.363 1037.7 166.58C1037.7 166.58 1037.7 166.58 1037.7 166.428C1037.7 167.797 1038.46 169.015 1039.83 169.167C1041.04 169.319 1042.41 168.406 1042.57 167.036C1042.57 166.123 1042.41 165.515 1042.11 164.602Z" fill="white"/>
<path d="M1037.7 166.581C1037.39 165.972 1037.7 166.429 1037.7 166.581V166.581Z" fill="white"/>
<rect x="1188" width="375" height="375" rx="80" fill="#DE385E"/>
<path d="M1371.74 180.31C1369.08 205.764 1346.14 224.41 1320.69 221.747C1295.09 219.083 1276.59 196.145 1279.26 170.691C1281.92 145.09 1304.86 126.591 1330.31 129.255C1355.91 131.919 1374.41 154.857 1371.74 180.31Z" fill="white"/>
<path d="M1362.79 178.962C1360.83 197.427 1343.51 210.699 1324.37 208.823C1305.09 206.948 1291.23 190.359 1293.18 172.038C1295.14 153.573 1312.47 140.301 1331.6 142.177C1350.89 144.052 1364.9 160.497 1362.79 178.962Z" fill="#074785"/>
<path d="M1311.98 231.759C1311.56 237.535 1304.85 241.534 1297.16 240.942C1289.47 240.201 1283.6 235.017 1284.02 229.241C1284.44 223.465 1291.15 219.466 1298.84 220.058C1306.53 220.799 1312.4 226.131 1311.98 231.759Z" fill="#FFAAE1"/>
<path d="M1464.98 236.728C1464.53 242.561 1457.67 246.552 1449.61 245.938C1441.56 245.17 1435.44 239.951 1436.04 234.272C1436.49 228.439 1443.35 224.448 1451.4 225.062C1459.46 225.83 1465.42 231.049 1464.98 236.728Z" fill="#FFAAE1"/>
<path d="M1357.68 164.783C1354.15 158.982 1349.54 154.074 1343.25 151.248C1340.33 149.909 1338.64 154.371 1341.4 155.71C1346.47 158.09 1350.31 162.105 1353.23 166.716C1354.76 169.393 1359.22 167.46 1357.68 164.783Z" fill="white"/>
<path d="M1336.48 147.81C1335.72 147.54 1334.96 147.405 1334.35 147.135C1333.13 146.729 1331.76 147.27 1331.15 148.351C1330.69 149.432 1331.3 150.784 1332.52 151.19C1333.28 151.46 1334.04 151.595 1334.65 151.865C1335.87 152.271 1337.24 151.73 1337.85 150.649C1338.31 149.568 1337.7 148.216 1336.48 147.81Z" fill="white"/>
<path d="M1360.55 173.398C1360.09 172.174 1358.44 171.716 1357.38 172.175C1356.17 172.786 1355.72 174.162 1356.17 175.386C1356.17 175.386 1356.17 175.386 1356.17 175.233C1356.17 176.609 1356.93 177.832 1358.28 177.985C1359.49 178.138 1360.85 177.068 1361 175.845C1361 174.927 1360.85 174.162 1360.55 173.398Z" fill="white"/>
<path d="M1471.75 181.206C1469.11 206.113 1446.42 224.359 1421.24 221.752C1395.92 219.146 1377.62 196.701 1380.25 171.794C1382.89 146.887 1405.58 128.641 1430.76 131.248C1456.08 133.854 1474.38 156.155 1471.75 181.206Z" fill="white"/>
<path d="M1458.82 180.514C1456.86 199.254 1439.52 212.724 1420.38 210.821C1401.09 208.917 1387.23 192.08 1389.18 173.486C1391.14 154.746 1408.48 141.276 1427.62 143.179C1446.91 145.083 1460.77 161.92 1458.82 180.514Z" fill="#074785"/>
<path d="M1452.63 165.783C1449.1 159.982 1444.51 155.074 1438.24 152.248C1435.33 150.909 1433.64 155.371 1436.4 156.71C1441.45 159.09 1445.28 163.105 1448.19 167.716C1449.87 170.393 1454.31 168.46 1452.63 165.783Z" fill="white"/>
<path d="M1431.46 148.81C1430.7 148.54 1429.95 148.405 1429.34 148.135C1428.12 147.729 1426.76 148.27 1426.15 149.351C1425.7 150.432 1426.3 151.784 1427.52 152.19C1428.28 152.46 1429.03 152.595 1429.64 152.865C1430.86 153.271 1432.22 152.73 1432.83 151.649C1433.28 150.568 1432.83 149.081 1431.46 148.81Z" fill="white"/>
<path d="M1455.55 174.631C1455.09 173.204 1453.44 172.668 1452.38 173.204C1451.17 173.917 1450.72 175.523 1451.17 176.95C1451.17 176.95 1451.17 176.95 1451.17 176.772C1451.17 178.377 1451.93 179.805 1453.28 179.983C1454.49 180.161 1455.85 178.912 1456 177.485C1456 176.415 1455.85 175.701 1455.55 174.631Z" fill="white"/>
<path d="M1394 240.765C1394.14 227.183 1388.97 213.303 1373.61 213.004C1357.81 212.706 1355 227.929 1355 240.616C1355 246.287 1363.72 246.287 1363.72 240.616C1363.72 233.601 1363.12 223.004 1372.14 221.81C1383.21 220.467 1385.43 231.959 1385.28 240.616C1385.13 246.436 1393.85 246.436 1394 240.765Z" fill="#074785"/>
<path d="M1437.86 117.105C1437.12 117.528 1436.07 117.809 1435.18 117.809C1426.09 118.232 1417.9 120.486 1410.01 124.289C1409.27 124.711 1408.37 124.852 1407.63 124.993C1404.8 125.134 1402.42 123.162 1401.37 120.204C1400.33 116.682 1401.52 113.302 1404.35 111.752C1404.5 111.752 1404.5 111.612 1404.65 111.612C1413.58 107.104 1423.56 104.569 1434.14 104.005C1437.86 103.864 1440.69 106.541 1440.99 110.626C1441.14 113.443 1439.95 115.978 1437.86 117.105Z" fill="#074785"/>
<path d="M1340.94 126C1340.05 126 1339.17 125.707 1338.28 125.267C1330.3 121.013 1322.18 118.667 1313.32 118.227C1312.43 118.227 1311.54 117.933 1310.95 117.493C1308.59 116.173 1307.41 113.24 1308.29 110.013C1309.33 106.347 1312.13 104 1315.38 104C1315.53 104 1315.53 104 1315.68 104C1325.72 104.587 1335.47 107.52 1344.78 112.36C1348.03 114.12 1348.92 118.08 1347 121.747C1345.67 124.387 1343.3 126 1340.94 126Z" fill="#074785"/>
<rect x="1603" width="375" height="375" rx="80" fill="#856EFA"/>
<path d="M1790.74 179.407C1788.07 204.981 1765.17 223.418 1739.59 220.742C1714.02 218.065 1695.58 195.168 1698.26 169.593C1700.93 144.019 1723.83 125.582 1749.41 128.258C1774.98 130.934 1793.42 153.832 1790.74 179.407Z" fill="white"/>
<path d="M1781.82 178.529C1779.91 197.204 1763.15 210.732 1744.47 208.82C1725.8 206.908 1712.27 190.145 1714.18 171.471C1716.09 152.796 1732.85 139.268 1751.53 141.18C1770.2 143.092 1783.73 159.855 1781.82 178.529Z" fill="#074785"/>
<path d="M1776.65 164.048C1773.32 158.557 1769.13 154.051 1763.06 151.234C1760.31 149.967 1758.72 154.191 1761.32 155.459C1766.09 157.712 1769.71 161.514 1772.31 165.879C1774.04 168.272 1778.24 166.442 1776.65 164.048Z" fill="white"/>
<path d="M1756.26 146.969C1755.39 146.646 1754.52 146.484 1753.83 146.161C1752.43 145.676 1750.87 146.323 1750.17 147.616C1749.65 148.909 1750.35 150.525 1751.74 151.01C1752.61 151.333 1753.48 151.495 1754.17 151.818C1755.57 152.303 1757.13 151.818 1757.83 150.363C1758.35 148.909 1757.65 147.292 1756.26 146.969Z" fill="white"/>
<path d="M1779.63 172.195C1779.17 171.149 1777.48 170.757 1776.4 171.149C1775.18 171.672 1774.71 172.849 1775.18 173.894C1775.18 173.894 1775.18 173.894 1775.18 173.764C1775.18 174.94 1775.94 175.855 1777.33 175.986C1778.56 176.117 1779.94 175.332 1779.94 174.156C1780.09 173.502 1779.94 172.849 1779.63 172.195Z" fill="white"/>
<path d="M1891.75 180.854C1889.1 206.153 1866.45 224.392 1841.15 221.745C1815.85 219.097 1797.61 196.445 1800.26 171.146C1802.9 145.847 1825.56 127.608 1850.85 130.255C1876.01 133.05 1894.39 155.702 1891.75 180.854Z" fill="white"/>
<path d="M1876.79 180.633C1874.85 199.857 1857.85 213.782 1838.91 211.815C1819.97 209.847 1806.24 192.591 1808.18 173.367C1810.12 154.143 1827.12 140.218 1846.07 142.185C1865.01 144.304 1878.88 161.409 1876.79 180.633Z" fill="#074785"/>
<path d="M1871.68 165.864C1868.15 160.029 1863.7 155.241 1857.25 152.249C1854.33 150.903 1852.64 155.391 1855.4 156.737C1860.47 159.131 1864.31 163.171 1867.08 167.809C1868.77 170.352 1873.22 168.407 1871.68 165.864Z" fill="white"/>
<path d="M1850.53 147.969C1849.76 147.646 1848.99 147.484 1848.38 147.161C1847.15 146.676 1845.77 147.323 1845.15 148.616C1844.69 149.909 1845.31 151.525 1846.53 152.01C1847.3 152.333 1848.07 152.495 1848.68 152.818C1849.91 153.303 1851.29 152.818 1851.91 151.363C1852.21 150.07 1851.75 148.292 1850.53 147.969Z" fill="white"/>
<path d="M1873.71 173.397C1873.34 172.174 1871.98 171.716 1871.12 172.174C1870.14 172.786 1869.77 174.162 1870.14 175.385C1870.14 175.385 1870.14 175.385 1870.14 175.232C1870.14 176.608 1870.76 177.831 1871.86 177.983C1872.85 178.136 1873.95 177.219 1873.95 175.843C1874.07 174.926 1873.95 174.162 1873.71 173.397Z" fill="white"/>
<path d="M1866.66 140.99C1865.79 140.99 1864.92 140.705 1864.05 140.276C1856.36 135.851 1848.53 133.424 1839.97 132.568C1839.1 132.425 1838.38 132.282 1837.65 131.854C1835.33 130.427 1834.46 127.571 1835.33 124.574C1836.49 121.148 1839.39 118.864 1842.58 119.006C1842.73 119.006 1842.73 119.006 1842.87 119.006C1852.59 120.006 1862.17 123.003 1871.01 128.143C1874.06 129.998 1874.93 133.853 1872.9 137.279C1871.45 139.705 1868.98 141.133 1866.66 140.99Z" fill="#074785"/>
<path d="M1716.34 141.99C1717.21 141.99 1718.08 141.705 1718.95 141.276C1726.64 136.851 1734.47 134.424 1743.03 133.568C1743.9 133.425 1744.62 133.282 1745.35 132.854C1747.67 131.427 1748.54 128.571 1747.67 125.574C1746.51 122.148 1743.61 119.864 1740.42 120.006C1740.27 120.006 1740.27 120.006 1740.13 120.006C1730.41 121.006 1720.83 124.003 1711.99 129.142C1708.94 130.998 1708.07 134.853 1710.1 138.279C1711.55 140.705 1713.87 142.133 1716.34 141.99Z" fill="#074785"/>
<path d="M1720.88 220.485C1721.92 220.928 1723.1 221.076 1724.28 221.076C1735.33 220.338 1745.8 221.813 1755.97 225.502C1757.01 225.945 1758.04 226.092 1759.07 225.945C1762.46 225.65 1765.11 222.846 1765.85 218.862C1766.59 214.288 1764.52 210.009 1760.84 208.534C1760.69 208.534 1760.54 208.386 1760.4 208.386C1748.75 204.107 1736.37 202.337 1723.39 203.222C1718.82 203.517 1715.72 207.649 1716.02 212.813C1716.17 216.206 1718.08 219.305 1720.88 220.485Z" fill="#29AEFD"/>
<path d="M1867.12 223.485C1866.08 223.928 1864.9 224.076 1863.72 224.076C1852.67 223.338 1842.2 224.813 1832.03 228.502C1830.99 228.945 1829.96 229.092 1828.93 228.945C1825.54 228.65 1822.89 225.846 1822.15 221.862C1821.41 217.288 1823.48 213.009 1827.16 211.534C1827.31 211.534 1827.46 211.386 1827.6 211.386C1839.25 207.107 1851.63 205.337 1864.61 206.222C1869.18 206.517 1872.28 210.648 1871.98 215.813C1871.83 219.206 1869.92 222.157 1867.12 223.485Z" fill="#29AEFD"/>
<path d="M1777.97 249C1776.65 249 1775.34 248.405 1774.46 247.512C1773.58 246.619 1773 245.279 1773 243.94C1773.15 230.991 1778.99 217 1791.71 217C1792.14 217 1792.44 217 1792.87 217C1797.11 217.298 1802.96 219.381 1806.61 227.865C1808.66 232.628 1809.39 238.135 1809.97 243.344C1810.12 244.684 1809.68 246.172 1808.8 247.065C1807.93 248.107 1806.61 248.702 1805.15 248.702C1802.52 248.702 1800.47 246.767 1800.18 244.088C1799.3 236.2 1797.84 227.121 1792.58 226.972H1792.44C1783.23 226.972 1782.94 243.195 1782.94 243.791C1782.79 246.916 1780.6 249 1777.97 249Z" fill="#074785"/>
<path d="M1755.44 276.103C1755.44 293.476 1744.15 296 1736.88 296C1729.45 296 1718.32 293.476 1718.32 276.103C1718.32 258.731 1736.88 233.192 1736.88 233.192C1736.88 233.192 1755.44 258.731 1755.44 276.103Z" fill="#29AEFD"/>
<path d="M1865.91 265.413C1865.91 278.479 1857.45 280.261 1851.95 280.261C1846.46 280.261 1838 278.331 1838 265.413C1838 252.346 1851.95 233.192 1851.95 233.192C1851.95 233.192 1865.91 252.346 1865.91 265.413Z" fill="#29AEFD"/>
<path d="M1738.79 292C1736 292 1732.03 291.714 1729.09 289.429C1726.73 287.714 1724.97 285.429 1723.2 282C1722.91 281.286 1722.91 280.571 1723.35 280C1723.79 279.286 1724.53 279 1725.26 279C1726 279 1726.73 279.429 1727.03 280.143C1728.21 282.571 1729.53 285 1731.73 286.286C1733.5 287.429 1735.71 287.857 1738.79 287.857C1739.97 287.857 1741 288.857 1741 290C1741 291.143 1740.12 292 1738.79 292Z" fill="white"/>
<path d="M1745 292C1743.93 292 1743 291 1743 289.5C1743 288.833 1743.13 288.333 1743.53 287.833C1743.93 287.333 1744.47 287 1745 287C1746.07 287 1747 288 1747 289.5C1747 290.167 1746.87 290.667 1746.47 291.167C1746.07 291.833 1745.53 292 1745 292Z" fill="white"/>
<path d="M1723 277C1721.93 277 1721 275.8 1721 274C1721 273.2 1721.13 272.6 1721.53 272C1721.93 271.4 1722.47 271 1723 271C1724.07 271 1725 272.2 1725 274C1725 274.8 1724.87 275.4 1724.47 276C1724.07 276.6 1723.53 277 1723 277Z" fill="white"/>
<path d="M1852.29 277C1850.29 277 1847.44 276.706 1845.29 275.088C1843.58 273.765 1842.3 272 1841.16 269.353C1840.87 268.765 1841.01 268.324 1841.3 267.735C1841.58 267.294 1842.15 267 1842.73 267C1843.3 267 1843.72 267.294 1844.01 267.882C1844.87 269.647 1845.87 271.559 1847.29 272.588C1848.58 273.471 1850.15 273.765 1852.43 273.765C1853.29 273.765 1854 274.5 1854 275.382C1853.86 276.265 1853.14 277 1852.29 277Z" fill="white"/>
<path d="M1857.5 277C1856.68 277 1856 276.091 1856 275C1856 274.455 1856.14 274.091 1856.41 273.727C1856.68 273.364 1857.09 273 1857.5 273C1858.32 273 1859 273.909 1859 275C1859 275.545 1858.86 275.909 1858.59 276.273C1858.32 276.818 1857.91 277 1857.5 277Z" fill="white"/>
<path d="M1841.5 265C1840.68 265 1840 264.318 1840 263.5C1840 263.091 1840.14 262.818 1840.41 262.545C1840.68 262.273 1841.09 262 1841.5 262C1842.32 262 1843 262.682 1843 263.5C1843 263.909 1842.86 264.182 1842.59 264.455C1842.32 264.864 1841.91 265 1841.5 265Z" fill="white"/>
</svg>
