<svg width="76" height="71" viewBox="0 0 76 71" fill="none" xmlns="http://www.w3.org/2000/svg">
<g filter="url(#filter0_d_2_19964)">
<path d="M20.3389 7.57498C17.3783 9.08314 14.4422 10.8468 12.3123 13.4924C10.4635 15.7889 9.31801 18.6457 8.65674 21.5789C5.73648 34.5326 12.8477 48.8937 24.1816 54.7079C35.5156 60.5221 49.9261 57.9754 59.5714 49.4089C62.0576 47.2008 64.279 44.6056 65.7928 41.569C70.3113 32.5055 67.5298 20.648 60.7423 13.3345C49.5738 1.30073 33.8703 0.681974 20.3389 7.57498Z" fill="#AFE0E9"/>
<path d="M26.2932 32.1106C27.7248 32.1106 28.8853 30.95 28.8853 29.5184C28.8853 28.0868 27.7248 26.9263 26.2932 26.9263C24.8616 26.9263 23.701 28.0868 23.701 29.5184C23.701 30.95 24.8616 32.1106 26.2932 32.1106Z" fill="#4F5463"/>
<path d="M49.9927 32.1106C51.4243 32.1106 52.5848 30.95 52.5848 29.5184C52.5848 28.0868 51.4243 26.9263 49.9927 26.9263C48.5611 26.9263 47.4006 28.0868 47.4006 29.5184C47.4006 30.95 48.5611 32.1106 49.9927 32.1106Z" fill="#4F5463"/>
<path d="M37.1942 34.3868C37.378 34.3868 37.5645 34.3426 37.7379 34.2496C38.2974 33.9489 38.5073 33.2512 38.2066 32.6915L36.6579 29.8099C36.3572 29.2502 35.66 29.0409 35.0998 29.3412C34.5403 29.6419 34.3304 30.3396 34.6311 30.8993L36.1798 33.7809C36.3875 34.1672 36.7843 34.3868 37.1942 34.3868Z" fill="#4F5463"/>
<path d="M39.2067 37.1838C36.78 37.1068 34.3204 38.1091 32.6391 39.8667C32.2 40.3258 32.2161 41.0542 32.6753 41.4933C33.1346 41.9326 33.8626 41.9161 34.3019 41.4571C35.5385 40.1642 37.3479 39.4309 39.1331 39.4836C40.9215 39.5408 42.6766 40.3928 43.828 41.7626C44.0555 42.0331 44.3813 42.1726 44.7092 42.1726C44.9706 42.1726 45.2333 42.0841 45.449 41.9028C45.9353 41.494 45.998 40.7683 45.5893 40.2818C44.024 38.42 41.6381 37.2618 39.2067 37.1838Z" fill="#4F5463"/>
<path d="M55.1899 36.7132C54.8798 36.7132 54.587 36.6149 54.3482 36.428C53.7893 35.9903 53.6561 35.2699 53.952 34.287L54.478 32.5409C54.6001 32.1354 55.0285 31.9052 55.4335 32.0277C55.6159 32.0826 55.7627 32.1992 55.858 32.3481C55.8977 32.3809 55.9346 32.4181 55.9681 32.4599C56.3954 32.9926 56.683 33.63 56.7995 34.3028C56.9175 34.9836 56.8124 35.5815 56.4958 36.0316C56.2473 36.3848 55.8417 36.6333 55.4109 36.6968C55.3367 36.7078 55.2627 36.7132 55.1899 36.7132Z" fill="#8BBADB"/>
<path d="M25.126 35.289C24.1254 35.289 23.1234 34.8853 22.4085 34.1855C22.1057 33.8893 22.1005 33.4038 22.3969 33.101C22.6933 32.7982 23.179 32.7933 23.4814 33.0894C23.9443 33.5425 24.6064 33.7887 25.2535 33.7513C25.6767 33.7228 26.0396 34.0485 26.0649 34.4713C26.09 34.8941 25.7677 35.2573 25.3449 35.2826C25.2721 35.2869 25.1989 35.289 25.126 35.289Z" fill="#8BBADB"/>
<path d="M49.7333 34.6961C49.4112 34.6961 49.0892 34.6514 48.7793 34.5606C48.3727 34.4415 48.1396 34.0155 48.2587 33.609C48.3778 33.2025 48.8042 32.9699 49.2103 33.0884C49.6702 33.2227 50.1769 33.1742 50.6027 32.9551C50.9791 32.7619 51.4418 32.9092 51.6357 33.286C51.8295 33.6625 51.6814 34.125 51.3049 34.319C50.8201 34.5686 50.2767 34.6961 49.7333 34.6961Z" fill="#8BBADB"/>
</g>
<defs>
<filter id="filter0_d_2_19964" x="0" y="0.15329" width="76" height="70.6934" filterUnits="userSpaceOnUse" color-interpolation-filters="sRGB">
<feFlood flood-opacity="0" result="BackgroundImageFix"/>
<feColorMatrix in="SourceAlpha" type="matrix" values="0 0 0 0 0 0 0 0 0 0 0 0 0 0 0 0 0 0 127 0" result="hardAlpha"/>
<feOffset dy="5"/>
<feGaussianBlur stdDeviation="4"/>
<feComposite in2="hardAlpha" operator="out"/>
<feColorMatrix type="matrix" values="0 0 0 0 0 0 0 0 0 0 0 0 0 0 0 0 0 0 0.1 0"/>
<feBlend mode="normal" in2="BackgroundImageFix" result="effect1_dropShadow_2_19964"/>
<feBlend mode="normal" in="SourceGraphic" in2="effect1_dropShadow_2_19964" result="shape"/>
</filter>
</defs>
</svg>
