<svg width="96" height="89" viewBox="0 0 96 89" fill="none" xmlns="http://www.w3.org/2000/svg">
<g filter="url(#filter0_d_2_19966)">
<path d="M24.4519 8.90168C20.5044 10.9146 16.5896 13.2686 13.7498 16.7998C11.2847 19.8649 9.75735 23.6779 8.87565 27.593C4.98198 44.8823 14.4636 64.0502 29.5755 71.8106C44.6875 79.5709 63.9015 76.1718 76.7619 64.738C80.0768 61.7908 83.0386 58.3269 85.0571 54.2739C91.0817 42.1767 87.3731 26.3504 78.3231 16.589C63.4318 0.527359 42.4937 -0.298496 24.4519 8.90168Z" fill="#98D2AD"/>
<path d="M32.0098 41.6496C33.9186 41.6496 35.466 40.1006 35.466 38.1899C35.466 36.2791 33.9186 34.7301 32.0098 34.7301C30.101 34.7301 28.5536 36.2791 28.5536 38.1899C28.5536 40.1006 30.101 41.6496 32.0098 41.6496Z" fill="#4F5463"/>
<path d="M63.6091 41.6496C65.5179 41.6496 67.0653 40.1006 67.0653 38.1899C67.0653 36.2791 65.5179 34.7301 63.6091 34.7301C61.7003 34.7301 60.1529 36.2791 60.1529 38.1899C60.1529 40.1006 61.7003 41.6496 63.6091 41.6496Z" fill="#4F5463"/>
<path d="M62.5887 46.3093C62.5994 46.1942 62.6007 46.0769 62.5843 45.9574C62.4684 45.1172 61.6932 44.5298 60.8554 44.6456C52.4913 45.7979 43.9725 46.2253 35.5341 45.9142C35.1869 45.9043 34.8664 46.0125 34.6027 46.1967C33.8831 46.4456 33.4402 47.1909 33.6007 47.956C34.0374 50.0394 34.5322 52.4007 35.9945 54.3728C37.3427 56.1912 39.4743 57.5748 42.33 58.4853C44.3385 59.1258 46.382 59.4435 48.3596 59.4435C50.9334 59.4435 53.3951 58.9051 55.5223 57.8397C59.9613 55.6159 62.813 51.0643 62.6182 46.5135C62.6152 46.4432 62.6008 46.3767 62.5887 46.3093ZM54.1494 55.0936C51.097 56.6224 47.1288 56.7925 43.261 55.5592C41.031 54.8481 39.4149 53.8332 38.4579 52.5424C37.7198 51.5469 37.3023 50.3115 36.9838 49.0262C38.2818 49.0602 39.5807 49.0834 40.8812 49.0834C47.0987 49.0834 53.3323 48.6904 59.4933 47.9177C59.1078 50.8128 57.0479 53.6414 54.1494 55.0936Z" fill="#4F5463"/>
<path d="M44.9546 35.96C44.1839 36.3124 43.8449 37.2233 44.1969 37.9946L45.2325 40.2639C45.4902 40.8285 46.0467 41.1616 46.6287 41.1616C46.8419 41.1616 47.0586 41.1169 47.265 41.0224C48.0358 40.67 48.3748 39.7591 48.0228 38.9878L46.9872 36.7185C46.6351 35.9467 45.7244 35.6081 44.9546 35.96Z" fill="#4F5463"/>
</g>
<defs>
<filter id="filter0_d_2_19966" x="0" y="0" width="96" height="89" filterUnits="userSpaceOnUse" color-interpolation-filters="sRGB">
<feFlood flood-opacity="0" result="BackgroundImageFix"/>
<feColorMatrix in="SourceAlpha" type="matrix" values="0 0 0 0 0 0 0 0 0 0 0 0 0 0 0 0 0 0 127 0" result="hardAlpha"/>
<feOffset dy="5"/>
<feGaussianBlur stdDeviation="4"/>
<feComposite in2="hardAlpha" operator="out"/>
<feColorMatrix type="matrix" values="0 0 0 0 0 0 0 0 0 0 0 0 0 0 0 0 0 0 0.1 0"/>
<feBlend mode="normal" in2="BackgroundImageFix" result="effect1_dropShadow_2_19966"/>
<feBlend mode="normal" in="SourceGraphic" in2="effect1_dropShadow_2_19966" result="shape"/>
</filter>
</defs>
</svg>
