<svg width="97" height="89" viewBox="0 0 97 89" fill="none" xmlns="http://www.w3.org/2000/svg">
<g filter="url(#filter0_d_2_19965)">
<g filter="url(#filter1_d_2_19965)">
<path d="M24.6993 8.90168C20.7518 10.9146 16.837 13.2686 13.9972 16.7998C11.5321 19.8649 10.0048 23.6779 9.12309 27.593C5.22941 44.8823 14.711 64.0502 29.823 71.8106C44.9349 79.5709 64.1489 76.1718 77.0094 64.738C80.3243 61.7908 83.286 58.3269 85.3045 54.2739C91.3291 42.1767 87.6205 26.3504 78.5705 16.589C63.6792 0.527359 42.7411 -0.298496 24.6993 8.90168Z" fill="#98D2AD"/>
<path d="M32.2572 41.6496C34.166 41.6496 35.7134 40.1006 35.7134 38.1899C35.7134 36.2791 34.166 34.7301 32.2572 34.7301C30.3485 34.7301 28.8011 36.2791 28.8011 38.1899C28.8011 40.1006 30.3485 41.6496 32.2572 41.6496Z" fill="#4F5463"/>
<path d="M63.8566 41.6496C65.7653 41.6496 67.3127 40.1006 67.3127 38.1899C67.3127 36.2791 65.7653 34.7301 63.8566 34.7301C61.9478 34.7301 60.4004 36.2791 60.4004 38.1899C60.4004 40.1006 61.9478 41.6496 63.8566 41.6496Z" fill="#4F5463"/>
<path d="M62.8361 46.3093C62.8469 46.1942 62.8481 46.0769 62.8317 45.9574C62.7159 45.1172 61.9407 44.5298 61.1028 44.6456C52.7388 45.7979 44.22 46.2253 35.7815 45.9142C35.4343 45.9043 35.1138 46.0125 34.8501 46.1967C34.1306 46.4457 33.6877 47.1909 33.8481 47.956C34.2848 50.0394 34.7796 52.4007 36.2419 54.3728C37.5901 56.1913 39.7217 57.5748 42.5774 58.4853C44.586 59.1258 46.6295 59.4435 48.6071 59.4435C51.1809 59.4435 53.6426 58.9052 55.7697 57.8397C60.2087 55.6159 63.0604 51.0643 62.8657 46.5135C62.8627 46.4432 62.8482 46.3767 62.8361 46.3093ZM54.3968 55.0936C51.3444 56.6224 47.3762 56.7926 43.5084 55.5592C41.2784 54.8482 39.6623 53.8332 38.7054 52.5424C37.9672 51.5469 37.5497 50.3115 37.2312 49.0262C38.5293 49.0603 39.8282 49.0834 41.1286 49.0834C47.3461 49.0834 53.5798 48.6904 59.7408 47.9177C59.3552 50.8128 57.2953 53.6414 54.3968 55.0936Z" fill="#4F5463"/>
<path d="M45.2021 35.96C44.4314 36.3124 44.0923 37.2233 44.4444 37.9946L45.48 40.2639C45.7376 40.8285 46.2941 41.1616 46.8761 41.1616C47.0893 41.1616 47.306 41.1169 47.5125 41.0224C48.2832 40.67 48.6222 39.7591 48.2702 38.9878L47.2346 36.7185C46.8826 35.9467 45.9718 35.6081 45.2021 35.96Z" fill="#4F5463"/>
</g>
</g>
<defs>
<filter id="filter0_d_2_19965" x="0.247437" y="0" width="96" height="89" filterUnits="userSpaceOnUse" color-interpolation-filters="sRGB">
<feFlood flood-opacity="0" result="BackgroundImageFix"/>
<feColorMatrix in="SourceAlpha" type="matrix" values="0 0 0 0 0 0 0 0 0 0 0 0 0 0 0 0 0 0 127 0" result="hardAlpha"/>
<feOffset dy="5"/>
<feGaussianBlur stdDeviation="4"/>
<feComposite in2="hardAlpha" operator="out"/>
<feColorMatrix type="matrix" values="0 0 0 0 0 0 0 0 0 0 0 0 0 0 0 0 0 0 0.1 0"/>
<feBlend mode="normal" in2="BackgroundImageFix" result="effect1_dropShadow_2_19965"/>
<feBlend mode="normal" in="SourceGraphic" in2="effect1_dropShadow_2_19965" result="shape"/>
</filter>
<filter id="filter1_d_2_19965" x="4.24744" y="3" width="88" height="81" filterUnits="userSpaceOnUse" color-interpolation-filters="sRGB">
<feFlood flood-opacity="0" result="BackgroundImageFix"/>
<feColorMatrix in="SourceAlpha" type="matrix" values="0 0 0 0 0 0 0 0 0 0 0 0 0 0 0 0 0 0 127 0" result="hardAlpha"/>
<feOffset dy="4"/>
<feGaussianBlur stdDeviation="2"/>
<feComposite in2="hardAlpha" operator="out"/>
<feColorMatrix type="matrix" values="0 0 0 0 0 0 0 0 0 0 0 0 0 0 0 0 0 0 0.25 0"/>
<feBlend mode="normal" in2="BackgroundImageFix" result="effect1_dropShadow_2_19965"/>
<feBlend mode="normal" in="SourceGraphic" in2="effect1_dropShadow_2_19965" result="shape"/>
</filter>
</defs>
</svg>
