<svg width="97" height="89" viewBox="0 0 97 89" fill="none" xmlns="http://www.w3.org/2000/svg">
<g filter="url(#filter0_d_2_19955)">
<path d="M24.4687 11.2815C20.5172 13.223 16.5984 15.4935 13.7557 18.8994C11.2881 21.8559 9.75914 25.5336 8.87655 29.3098C4.97889 45.986 14.4702 64.4741 29.5976 71.9592C44.7251 79.4442 63.9587 76.1657 76.8323 65.1374C80.1506 62.2948 83.1154 58.9537 85.136 55.0445C91.1668 43.3763 87.4544 28.1113 78.3951 18.6962C63.4885 3.20417 42.529 2.4076 24.4687 11.2815Z" fill="#F7A4A6"/>
<path d="M43.9216 40.0729C43.1421 40.3948 42.7805 41.2652 43.1144 42.0173L44.3117 44.7155C44.5611 45.2774 45.128 45.6142 45.724 45.6142C45.9254 45.6142 46.1304 45.5756 46.3276 45.4941C47.1071 45.1723 47.4687 44.3018 47.1348 43.5497L45.9375 40.8516C45.6041 40.0999 44.7031 39.7511 43.9216 40.0729Z" fill="#4F5463"/>
<path d="M32.9219 35.9605L29.0828 34.9736C28.2629 34.7631 27.4221 35.233 27.2034 36.0232C26.9901 36.7952 27.4526 37.5835 28.2375 37.8162C27.9249 38.3178 27.7418 38.903 27.7418 39.5309C27.7418 41.3739 29.2907 42.8679 31.2015 42.8679C33.1122 42.8679 34.6612 41.3739 34.6612 39.5309C34.6612 38.8197 34.4287 38.1618 34.0356 37.6204C34.1562 36.8808 33.6882 36.1576 32.9219 35.9605Z" fill="#4F5463"/>
<path d="M66.0095 37.8704C66.7585 37.4871 67.0439 36.5906 66.6466 35.8679C66.2492 35.1452 65.3202 34.8714 64.5705 35.2535C63.2012 35.954 61.7286 36.4156 60.1939 36.6253C59.3541 36.7401 58.7701 37.4895 58.889 38.2995C58.9421 38.6614 59.1279 38.9728 59.3908 39.1978C59.3795 39.3074 59.3734 39.4185 59.3734 39.5309C59.3734 41.3739 60.9223 42.868 62.8331 42.868C64.7438 42.868 66.2928 41.3739 66.2928 39.5309C66.2928 38.9535 66.1405 38.4104 65.8729 37.9367C65.9182 37.914 65.9644 37.8935 66.0095 37.8704Z" fill="#4F5463"/>
<path d="M59.3167 47.7266C58.6951 48.2103 58.1357 48.7651 57.6459 49.372C57.6234 49.3692 57.6026 49.3619 57.5797 49.36C54.6479 49.1178 51.6169 48.8666 48.5634 49.2086C45.013 49.6069 41.9695 50.8044 39.7622 52.6719C39.1246 53.2114 39.0611 54.147 39.6202 54.7619C39.9238 55.0958 40.3485 55.2664 40.7751 55.2664C41.1347 55.2664 41.4956 55.1454 41.787 54.8988C43.9811 53.0427 46.8759 52.38 48.918 52.151C51.2909 51.8854 53.7595 52.027 56.1809 52.2191C56.2093 52.7652 56.5455 53.2758 57.1014 53.5067C57.2993 53.5892 57.5055 53.6282 57.7082 53.6282C58.3028 53.6282 58.8688 53.2929 59.119 52.7327C59.5878 51.6833 60.3231 50.7495 61.2451 50.0321C61.9051 49.5186 62.0086 48.586 61.476 47.9493C60.9437 47.3132 59.9775 47.2132 59.3167 47.7266Z" fill="#4F5463"/>
<path d="M56.054 13.3598C55.5756 13.3598 55.148 13.0348 55.0511 12.5653C54.9406 12.0303 55.3005 11.5104 55.8548 11.4038C57.2439 11.1367 58.5472 10.8282 59.2257 9.9963C59.6246 9.50767 59.8198 8.80402 59.7758 8.01456C59.7283 7.16603 59.4249 6.32473 59.1343 5.61385C58.9271 5.10666 59.1852 4.53318 59.7113 4.3331C60.2364 4.13302 60.8315 4.3818 61.0391 4.88971C61.3898 5.74788 61.7569 6.77769 61.8201 7.90849C61.8911 9.17694 61.541 10.3521 60.8345 11.2177C59.6323 12.6911 57.6 13.0818 56.2552 13.3405C56.1877 13.3535 56.1202 13.3598 56.054 13.3598Z" fill="#D36A7B"/>
<path d="M69.1331 10.7785C68.9986 10.7785 68.8634 10.7744 68.7272 10.7657C67.1927 10.6681 65.8639 9.95675 65.1726 8.86306C64.8477 8.34865 64.6888 7.79252 64.5868 7.3656C64.3151 6.2307 64.2284 5.06638 64.3286 3.90544C64.3756 3.36186 64.8734 2.95857 65.4338 3.0034C65.9973 3.04872 66.416 3.52602 66.369 4.06936C66.2862 5.02637 66.3577 5.98603 66.5817 6.92181C66.6491 7.20385 66.7486 7.56255 66.9208 7.83518C67.2607 8.37298 68.0044 8.74084 68.8622 8.79533C69.7974 8.85414 70.8023 8.57837 71.6655 8.31417C72.2038 8.14929 72.7797 8.43663 72.9509 8.95659C73.1218 9.47632 72.8237 10.0315 72.2848 10.1964C71.3531 10.4818 70.2785 10.7785 69.1331 10.7785Z" fill="#D36A7B"/>
<path d="M64.1017 20.9922C63.5981 20.9922 63.1592 20.634 63.0888 20.1393C62.9608 19.2416 62.6252 18.0571 61.7519 17.5103C60.668 16.8313 59.0268 17.2647 57.5745 17.7246C57.0377 17.8951 56.4589 17.6123 56.2827 17.0943C56.1065 16.576 56.3991 16.0182 56.9362 15.8482C58.311 15.4131 60.87 14.6032 62.8668 15.854C64.0719 16.6088 64.8502 17.9975 65.1171 19.8703C65.1941 20.4105 64.8025 20.9088 64.2424 20.983C64.1952 20.9893 64.1482 20.9922 64.1017 20.9922Z" fill="#D36A7B"/>
<path d="M68.4797 19.9677C68.1228 19.9677 67.7764 19.7876 67.588 19.4668C66.69 17.9375 66.7693 15.9297 67.7852 14.4703C68.8009 13.0114 70.6988 12.1812 72.5054 12.4045C73.0662 12.4739 73.4626 12.9685 73.3909 13.5092C73.3192 14.0504 72.8073 14.4296 72.2455 14.3633C71.2043 14.2358 70.0697 14.7314 69.4846 15.5715C68.8998 16.4116 68.8523 17.613 69.3694 18.4934C69.6481 18.968 69.4751 19.5704 68.9833 19.8392C68.8239 19.9262 68.6507 19.9677 68.4797 19.9677Z" fill="#D36A7B"/>
</g>
<defs>
<filter id="filter0_d_2_19955" x="0" y="0" width="96.0819" height="89" filterUnits="userSpaceOnUse" color-interpolation-filters="sRGB">
<feFlood flood-opacity="0" result="BackgroundImageFix"/>
<feColorMatrix in="SourceAlpha" type="matrix" values="0 0 0 0 0 0 0 0 0 0 0 0 0 0 0 0 0 0 127 0" result="hardAlpha"/>
<feOffset dy="5"/>
<feGaussianBlur stdDeviation="4"/>
<feComposite in2="hardAlpha" operator="out"/>
<feColorMatrix type="matrix" values="0 0 0 0 0 0 0 0 0 0 0 0 0 0 0 0 0 0 0.1 0"/>
<feBlend mode="normal" in2="BackgroundImageFix" result="effect1_dropShadow_2_19955"/>
<feBlend mode="normal" in="SourceGraphic" in2="effect1_dropShadow_2_19955" result="shape"/>
</filter>
</defs>
</svg>
