<svg width="212" height="200" viewBox="0 0 212 200" fill="none" xmlns="http://www.w3.org/2000/svg">
<path d="M43.4233 22.6386C33.0043 27.9461 22.6715 34.1529 15.176 43.4633C8.66969 51.5451 4.63835 61.5987 2.3112 71.9216C-7.96581 117.508 17.06 168.048 56.9467 188.509C96.8335 208.971 147.547 200.009 181.491 169.861C190.24 162.091 198.058 152.957 203.385 142.271C219.287 110.374 209.498 68.6453 185.612 42.9077C146.307 0.558125 91.043 -1.6194 43.4233 22.6386Z" fill="#F7A4A6"/>
<path d="M94.7149 101.344C92.6596 102.224 91.7061 104.603 92.5864 106.659L95.7436 114.035C96.4012 115.571 97.8958 116.492 99.4674 116.492C99.9985 116.492 100.539 116.386 101.059 116.164C103.114 115.284 104.068 112.904 103.187 110.848L100.03 103.473C99.1511 101.418 96.7755 100.464 94.7149 101.344Z" fill="#4F5463"/>
<path d="M65.7118 90.1021L55.5894 87.4043C53.4273 86.829 51.2105 88.1133 50.6339 90.2734C50.0714 92.3839 51.2908 94.5388 53.3604 95.175C52.5361 96.5462 52.0533 98.1459 52.0533 99.8623C52.0533 104.9 56.1376 108.985 61.1756 108.985C66.2137 108.985 70.2979 104.9 70.2979 99.8623C70.2979 97.9181 69.6849 96.1198 68.6484 94.6396C68.9664 92.618 67.7325 90.6409 65.7118 90.1021Z" fill="#4F5463"/>
<path d="M152.954 95.3231C154.929 94.2753 155.682 91.8246 154.634 89.849C153.586 87.8735 151.137 87.1249 149.16 88.1694C145.55 90.0843 141.667 91.3462 137.62 91.9195C135.406 92.2332 133.866 94.2819 134.18 96.4961C134.32 97.4852 134.81 98.3367 135.503 98.9517C135.473 99.2513 135.457 99.5549 135.457 99.8623C135.457 104.9 139.541 108.985 144.579 108.985C149.617 108.985 153.701 104.9 153.701 99.8623C153.701 98.2838 153.3 96.7992 152.594 95.5042C152.714 95.4423 152.835 95.3862 152.954 95.3231Z" fill="#4F5463"/>
<path d="M135.307 122.266C133.668 123.589 132.194 125.105 130.902 126.764C130.843 126.757 130.788 126.737 130.727 126.732C122.997 126.069 115.005 125.383 106.954 126.318C97.5926 127.406 89.5677 130.68 83.7477 135.785C82.0666 137.26 81.8993 139.817 83.3734 141.498C84.174 142.411 85.2936 142.878 86.4185 142.878C87.3668 142.878 88.3183 142.547 89.0866 141.873C94.8717 136.799 102.505 134.987 107.889 134.361C114.146 133.635 120.655 134.022 127.039 134.547C127.114 136.04 128 137.436 129.466 138.067C129.988 138.292 130.532 138.399 131.066 138.399C132.634 138.399 134.126 137.483 134.786 135.951C136.022 133.083 137.961 130.53 140.392 128.569C142.132 127.165 142.405 124.616 141.001 122.875C139.597 121.136 137.05 120.863 135.307 122.266Z" fill="#4F5463"/>
<path d="M126.705 28.3199C125.443 28.3199 124.316 27.4316 124.06 26.148C123.769 24.6857 124.718 23.2643 126.179 22.973C129.842 22.2429 133.278 21.3994 135.068 19.1253C136.119 17.7896 136.634 15.8661 136.518 13.708C136.393 11.3884 135.593 9.08858 134.826 7.14528C134.28 5.7588 134.961 4.19111 136.348 3.64418C137.732 3.09724 139.301 3.7773 139.849 5.16575C140.773 7.51167 141.742 10.3268 141.908 13.418C142.095 16.8855 141.172 20.098 139.309 22.4643C136.14 26.4919 130.781 27.5601 127.235 28.2672C127.057 28.3028 126.879 28.3199 126.705 28.3199Z" fill="#D36A7B"/>
<path d="M161.19 21.2637C160.836 21.2637 160.479 21.2525 160.12 21.2287C156.074 20.9618 152.57 19.0172 150.748 16.0275C149.891 14.6213 149.472 13.101 149.203 11.934C148.487 8.83157 148.258 5.64874 148.522 2.47516C148.646 0.989193 149.959 -0.113254 151.436 0.00930439C152.922 0.133175 154.026 1.43795 153.902 2.92324C153.684 5.53936 153.873 8.16272 154.463 10.7208C154.641 11.4918 154.903 12.4724 155.357 13.2176C156.253 14.6878 158.214 15.6934 160.476 15.8423C162.942 16.0031 165.592 15.2493 167.868 14.527C169.287 14.0763 170.805 14.8618 171.257 16.2832C171.707 17.7039 170.921 19.2215 169.501 19.6722C167.044 20.4525 164.21 21.2637 161.19 21.2637Z" fill="#D36A7B"/>
<path d="M147.924 49.1841C146.596 49.1841 145.439 48.2049 145.253 46.8527C144.916 44.3987 144.031 41.1605 141.728 39.666C138.87 37.8097 134.543 38.9945 130.714 40.2518C129.298 40.7177 127.772 39.9448 127.308 38.5286C126.843 37.1118 127.615 35.587 129.031 35.1224C132.656 33.933 139.403 31.7188 144.668 35.1382C147.846 37.2015 149.898 40.9978 150.601 46.1173C150.804 47.594 149.772 48.9561 148.295 49.1591C148.17 49.1762 148.047 49.1841 147.924 49.1841Z" fill="#D36A7B"/>
<path d="M159.468 46.3836C158.527 46.3836 157.613 45.8913 157.116 45.0142C154.749 40.8338 154.958 35.3452 157.636 31.3558C160.314 27.3677 165.319 25.0982 170.082 25.7084C171.561 25.8982 172.606 27.2504 172.417 28.7285C172.228 30.2079 170.878 31.2444 169.397 31.0632C166.652 30.7146 163.66 32.0695 162.117 34.366C160.575 36.6625 160.45 39.9468 161.814 42.3533C162.548 43.6508 162.092 45.2976 160.795 46.0323C160.375 46.2702 159.918 46.3836 159.468 46.3836Z" fill="#D36A7B"/>
</svg>
