<svg width="76" height="71" viewBox="0 0 76 71" fill="none" xmlns="http://www.w3.org/2000/svg">
<g filter="url(#filter0_d_2_19969)">
<path d="M20.3389 7.57498C17.3783 9.08314 14.4422 10.8468 12.3123 13.4924C10.4635 15.7889 9.31801 18.6457 8.65674 21.5789C5.73648 34.5326 12.8477 48.8937 24.1817 54.7079C35.5156 60.5221 49.9261 57.9754 59.5714 49.4089C62.0576 47.2008 64.279 44.6056 65.7928 41.569C70.3113 32.5054 67.5298 20.648 60.7423 13.3345C49.5738 1.30073 33.8703 0.681974 20.3389 7.57498Z" fill="#FCE573"/>
<path d="M25.3833 32.1106C26.8149 32.1106 27.9754 30.95 27.9754 29.5184C27.9754 28.0868 26.8149 26.9263 25.3833 26.9263C23.9517 26.9263 22.7911 28.0868 22.7911 29.5184C22.7911 30.95 23.9517 32.1106 25.3833 32.1106Z" fill="#4F5463"/>
<path d="M49.0827 32.1106C50.5143 32.1106 51.6749 30.95 51.6749 29.5184C51.6749 28.0868 50.5143 26.9263 49.0827 26.9263C47.6511 26.9263 46.4906 28.0868 46.4906 29.5184C46.4906 30.95 47.6511 32.1106 49.0827 32.1106Z" fill="#4F5463"/>
<path d="M36.273 32.2042C36.5005 32.4833 36.8318 32.6281 37.1658 32.6281C37.4212 32.6281 37.6781 32.5434 37.8916 32.3697C38.3842 31.9684 38.4584 31.2438 38.0571 30.7511L36.4737 28.8069C36.0728 28.3143 35.3484 28.2397 34.8554 28.6412C34.3625 29.0423 34.2884 29.7669 34.6896 30.2596L36.273 32.2042Z" fill="#4F5463"/>
<path d="M21.565 23.8637C22.2996 23.1291 23.3963 22.7821 24.4223 22.9896C24.8375 23.0735 25.106 23.4781 25.0221 23.8934C24.9376 24.3086 24.5334 24.577 24.1183 24.4932C23.5271 24.3736 22.8635 24.6302 22.5065 25.1145C22.2522 25.456 21.7746 25.5279 21.4341 25.2766C21.0931 25.0252 21.0207 24.5449 21.272 24.2041C21.3614 24.083 21.4595 23.9692 21.565 23.8637Z" fill="#5A7FA0"/>
<path d="M49.3808 23.8965C49.2739 23.8965 49.1668 23.9007 49.0595 23.9085C48.6372 23.9404 48.3204 24.3085 48.3521 24.7309C48.3837 25.1532 48.7505 25.4692 49.1745 25.4383C50.0304 25.3732 50.9191 25.7273 51.4973 26.3592C51.7834 26.6719 52.2685 26.6931 52.5809 26.4074C52.8934 26.1214 52.9149 25.6363 52.629 25.3237C51.7995 24.4169 50.6041 23.8965 49.3808 23.8965Z" fill="#5A7FA0"/>
<path d="M46.6395 34.9876C46.4712 35.4072 46.3105 35.778 46.1616 36.1663C46.0223 36.5261 45.872 36.8837 45.7646 37.2711C45.5961 37.857 45.2627 38.207 44.8902 38.4898C44.3791 38.8776 43.8057 39.0485 43.1602 38.9533C42.8991 38.915 42.6522 38.8261 42.4063 38.6123C42.1499 38.3857 41.88 38.1991 41.6294 37.9553C41.1179 37.4551 40.6791 37.4805 40.2894 37.8925C39.7871 38.4286 39.3779 39.09 39.0971 39.9037C38.8935 40.4886 38.6976 40.5625 38.2447 40.1243C37.9986 39.8845 37.7758 39.5761 37.5414 39.302C37.3428 39.0701 37.1635 39.0252 36.9633 39.1729C36.6232 39.4209 36.3142 39.6812 36.1012 40.1545C35.7431 40.9527 35.2684 41.6163 34.7558 42.2175C34.629 42.3661 34.4778 42.3863 34.3119 42.2495C34.0321 42.0136 33.7549 41.7615 33.4848 41.4971C33.2935 41.3048 33.1042 41.1587 32.8866 41.1138C32.5586 41.0469 32.2953 41.1286 32.1704 41.5416C32.0488 41.9537 31.9376 42.3786 31.8174 42.7955C31.7711 42.9587 31.7248 43.1219 31.6701 43.3185C31.1645 43.0971 30.8684 42.5696 30.5988 42.0246C30.5375 41.901 30.5304 41.6951 30.5469 41.5504C30.6362 40.7107 30.8218 39.9437 31.2149 39.3385C31.4677 38.948 31.7979 38.8689 32.1985 39.1396C32.5132 39.3503 32.8215 39.5888 33.1202 39.8559C33.7149 40.3804 33.7509 40.4745 34.2177 39.7818C34.6619 39.1213 35.1101 38.4753 35.5647 37.8275C35.7109 37.6217 35.859 37.4101 36.0371 37.258C36.37 36.9704 36.7387 36.9692 37.1327 37.4338C37.2297 37.5477 37.3351 37.6542 37.427 37.7748C37.7638 38.2341 38.0997 38.0859 38.2677 37.7807C38.4589 37.4328 38.6605 37.0977 38.8368 36.7331C39.0892 36.2128 39.4616 35.8782 39.8235 35.5308C40.0722 35.292 40.3546 35.2934 40.6681 35.5253C40.8671 35.6688 41.0823 35.8078 41.2471 36.0177C41.5422 36.4 41.8803 36.62 42.2184 36.8141C42.9531 37.2383 43.6092 37.18 44.1432 36.5938C44.3549 36.3598 44.5157 36.041 44.7247 35.7973C45.0094 35.4605 45.2948 35.1131 45.6199 34.8484C45.9049 34.5894 46.2646 34.6062 46.6395 34.9876Z" fill="#4F5463"/>
</g>
<defs>
<filter id="filter0_d_2_19969" x="0" y="0.15329" width="76" height="70.6934" filterUnits="userSpaceOnUse" color-interpolation-filters="sRGB">
<feFlood flood-opacity="0" result="BackgroundImageFix"/>
<feColorMatrix in="SourceAlpha" type="matrix" values="0 0 0 0 0 0 0 0 0 0 0 0 0 0 0 0 0 0 127 0" result="hardAlpha"/>
<feOffset dy="5"/>
<feGaussianBlur stdDeviation="4"/>
<feComposite in2="hardAlpha" operator="out"/>
<feColorMatrix type="matrix" values="0 0 0 0 0 0 0 0 0 0 0 0 0 0 0 0 0 0 0.1 0"/>
<feBlend mode="normal" in2="BackgroundImageFix" result="effect1_dropShadow_2_19969"/>
<feBlend mode="normal" in="SourceGraphic" in2="effect1_dropShadow_2_19969" result="shape"/>
</filter>
</defs>
</svg>
